<svg width="379" height="265" viewBox="0 0 379 265" fill="none" xmlns="http://www.w3.org/2000/svg">
<rect x="71.25" y="53.25" width="29.5" height="149.5" fill="#5691E9" stroke="black" stroke-width="0.5"/>
<rect x="101.25" y="93.25" width="29.5" height="109.5" fill="#5691E9" stroke="black" stroke-width="0.5"/>
<rect x="131.25" y="133.25" width="29.5" height="69.5" fill="#5691E9" stroke="black" stroke-width="0.5"/>
<rect x="161.25" y="133.25" width="29.5" height="69.5" fill="#5691E9" stroke="black" stroke-width="0.5"/>
<rect x="191.25" y="163.25" width="29.5" height="39.5" fill="#5691E9" stroke="black" stroke-width="0.5"/>
<rect x="221.25" y="173.25" width="29.5" height="29.5" fill="#5691E9" stroke="black" stroke-width="0.5"/>
<rect x="251.25" y="173.25" width="29.5" height="29.5" fill="#5691E9" stroke="black" stroke-width="0.5"/>
<rect x="281.25" y="198.25" width="29.5" height="4.5" fill="#5691E9" stroke="black" stroke-width="0.5"/>
<rect x="0.25" y="-0.25" width="29.5" height="0.5" transform="matrix(1 0 0 -1 311 202.5)" fill="#5691E9" stroke="black" stroke-width="0.5"/>
<rect x="341.25" y="198.25" width="29.5" height="4.5" fill="#5691E9" stroke="black" stroke-width="0.5"/>
<line x1="59.5" y1="53" x2="59.5" y2="203" stroke="black"/>
<line x1="52" y1="52.5" x2="60" y2="52.5" stroke="black"/>
<line x1="52" y1="77.5" x2="60" y2="77.5" stroke="black"/>
<line x1="52" y1="102.5" x2="60" y2="102.5" stroke="black"/>
<line x1="52" y1="127.5" x2="60" y2="127.5" stroke="black"/>
<line x1="52" y1="152.5" x2="60" y2="152.5" stroke="black"/>
<line x1="52" y1="177.5" x2="60" y2="177.5" stroke="black"/>
<line x1="52" y1="202.5" x2="60" y2="202.5" stroke="black"/>
<path d="M37.12 56.52C37.12 57.224 36.956 57.848 36.628 58.392C36.292 58.928 35.832 59.292 35.248 59.484L34.756 58.524C35.052 58.428 35.312 58.296 35.536 58.128C35.752 57.96 35.92 57.74 36.04 57.468C36.16 57.188 36.22 56.84 36.22 56.424C36.22 56.072 36.156 55.776 36.028 55.536C35.9 55.296 35.728 55.112 35.512 54.984C35.288 54.856 35.032 54.792 34.744 54.792C34.456 54.792 34.216 54.848 34.024 54.96C33.832 55.064 33.692 55.232 33.604 55.464C33.508 55.696 33.46 56 33.46 56.376C33.46 56.464 33.464 56.56 33.472 56.664C33.472 56.768 33.48 56.876 33.496 56.988H32.536C32.544 56.916 32.548 56.848 32.548 56.784C32.548 56.712 32.548 56.648 32.548 56.592C32.548 56.008 32.436 55.592 32.212 55.344C31.98 55.096 31.62 54.972 31.132 54.972C30.716 54.972 30.4 55.1 30.184 55.356C29.968 55.612 29.86 55.976 29.86 56.448C29.86 56.952 29.972 57.336 30.196 57.6C30.412 57.864 30.708 58.072 31.084 58.224L30.652 59.136C30.316 59.008 30.02 58.816 29.764 58.56C29.508 58.304 29.308 57.996 29.164 57.636C29.02 57.268 28.948 56.864 28.948 56.424C28.948 55.872 29.044 55.416 29.236 55.056C29.42 54.696 29.668 54.428 29.98 54.252C30.292 54.068 30.636 53.976 31.012 53.976C31.3 53.976 31.56 54.016 31.792 54.096C32.016 54.176 32.212 54.288 32.38 54.432C32.548 54.568 32.684 54.724 32.788 54.9C32.884 55.076 32.948 55.264 32.98 55.464H33.004C33.012 55.2 33.064 54.968 33.16 54.768C33.256 54.56 33.384 54.384 33.544 54.24C33.704 54.096 33.888 53.988 34.096 53.916C34.296 53.836 34.508 53.796 34.732 53.796C35.196 53.796 35.608 53.912 35.968 54.144C36.328 54.368 36.612 54.684 36.82 55.092C37.02 55.5 37.12 55.976 37.12 56.52ZM37.12 49.2719C37.12 50.1679 36.772 50.8839 36.076 51.4199C35.38 51.9559 34.368 52.2239 33.04 52.2239C31.712 52.2239 30.7 51.9559 30.004 51.4199C29.308 50.8839 28.96 50.1679 28.96 49.2719C28.96 48.3679 29.308 47.6519 30.004 47.1239C30.7 46.5879 31.712 46.3199 33.04 46.3199C34.368 46.3199 35.38 46.5879 36.076 47.1239C36.772 47.6519 37.12 48.3679 37.12 49.2719ZM36.256 49.2719C36.256 48.8479 36.136 48.4919 35.896 48.2039C35.648 47.9079 35.284 47.6879 34.804 47.5439C34.324 47.3919 33.736 47.3159 33.04 47.3159C32.344 47.3159 31.756 47.3919 31.276 47.5439C30.796 47.6879 30.436 47.9079 30.196 48.2039C29.948 48.4919 29.824 48.8479 29.824 49.2719C29.824 49.6959 29.948 50.0559 30.196 50.3519C30.436 50.6399 30.796 50.8599 31.276 51.0119C31.756 51.1559 32.344 51.2279 33.04 51.2279C33.736 51.2279 34.324 51.1559 34.804 51.0119C35.284 50.8599 35.648 50.6399 35.896 50.3519C36.136 50.0559 36.256 49.6959 36.256 49.2719Z" fill="black"/>
<path d="M37 86.112H36.22C35.636 85.32 35.124 84.66 34.684 84.132C34.244 83.596 33.844 83.168 33.484 82.848C33.124 82.528 32.784 82.3 32.464 82.164C32.136 82.028 31.796 81.96 31.444 81.96C30.972 81.96 30.592 82.112 30.304 82.416C30.008 82.712 29.86 83.12 29.86 83.64C29.86 84.184 30.04 84.62 30.4 84.948C30.752 85.276 31.224 85.468 31.816 85.524L31.312 86.364C30.848 86.292 30.44 86.144 30.088 85.92C29.736 85.688 29.46 85.38 29.26 84.996C29.06 84.604 28.96 84.14 28.96 83.604C28.96 83.196 29.02 82.832 29.14 82.512C29.26 82.184 29.432 81.904 29.656 81.672C29.872 81.44 30.132 81.264 30.436 81.144C30.74 81.016 31.076 80.952 31.444 80.952C31.94 80.952 32.428 81.072 32.908 81.312C33.38 81.552 33.876 81.948 34.396 82.5C34.916 83.052 35.492 83.8 36.124 84.744H36.136C36.128 84.656 36.124 84.536 36.124 84.384C36.116 84.224 36.112 84.068 36.112 83.916C36.104 83.756 36.1 83.636 36.1 83.556V80.784H37V86.112ZM37.12 76.5599C37.12 77.2639 36.96 77.8319 36.64 78.2639C36.32 78.6879 35.876 79.0159 35.308 79.2479L34.816 78.3119C35.232 78.1839 35.572 77.9879 35.836 77.7239C36.092 77.4519 36.22 77.0559 36.22 76.5359C36.22 76.1679 36.152 75.8559 36.016 75.5999C35.88 75.3359 35.688 75.1319 35.44 74.9879C35.184 74.8439 34.88 74.7719 34.528 74.7719C34.152 74.7719 33.84 74.8399 33.592 74.9759C33.336 75.1039 33.144 75.2919 33.016 75.5399C32.888 75.7879 32.824 76.0919 32.824 76.4519C32.824 76.7079 32.852 76.9479 32.908 77.1719C32.956 77.3879 33.036 77.5839 33.148 77.7599C33.26 77.9359 33.408 78.0879 33.592 78.2159L33.436 79.0559L29.08 78.5879V74.1359H29.98V77.7719L32.476 78.0839L32.584 78.1079V78.0839C32.384 77.8919 32.224 77.6479 32.104 77.3519C31.984 77.0479 31.924 76.6879 31.924 76.2719C31.924 75.7679 32.032 75.3319 32.248 74.9639C32.456 74.5879 32.752 74.2959 33.136 74.0879C33.52 73.8799 33.968 73.7759 34.48 73.7759C34.888 73.7759 35.256 73.8439 35.584 73.9799C35.912 74.1159 36.192 74.3079 36.424 74.5559C36.648 74.8039 36.82 75.0999 36.94 75.4439C37.06 75.7799 37.12 76.1519 37.12 76.5599Z" fill="black"/>
<path d="M37 113.112H36.22C35.636 112.32 35.124 111.66 34.684 111.132C34.244 110.596 33.844 110.168 33.484 109.848C33.124 109.528 32.784 109.3 32.464 109.164C32.136 109.028 31.796 108.96 31.444 108.96C30.972 108.96 30.592 109.112 30.304 109.416C30.008 109.712 29.86 110.12 29.86 110.64C29.86 111.184 30.04 111.62 30.4 111.948C30.752 112.276 31.224 112.468 31.816 112.524L31.312 113.364C30.848 113.292 30.44 113.144 30.088 112.92C29.736 112.688 29.46 112.38 29.26 111.996C29.06 111.604 28.96 111.14 28.96 110.604C28.96 110.196 29.02 109.832 29.14 109.512C29.26 109.184 29.432 108.904 29.656 108.672C29.872 108.44 30.132 108.264 30.436 108.144C30.74 108.016 31.076 107.952 31.444 107.952C31.94 107.952 32.428 108.072 32.908 108.312C33.38 108.552 33.876 108.948 34.396 109.5C34.916 110.052 35.492 110.8 36.124 111.744H36.136C36.128 111.656 36.124 111.536 36.124 111.384C36.116 111.224 36.112 111.068 36.112 110.916C36.104 110.756 36.1 110.636 36.1 110.556V107.784H37V113.112ZM37.12 103.272C37.12 104.168 36.772 104.884 36.076 105.42C35.38 105.956 34.368 106.224 33.04 106.224C31.712 106.224 30.7 105.956 30.004 105.42C29.308 104.884 28.96 104.168 28.96 103.272C28.96 102.368 29.308 101.652 30.004 101.124C30.7 100.588 31.712 100.32 33.04 100.32C34.368 100.32 35.38 100.588 36.076 101.124C36.772 101.652 37.12 102.368 37.12 103.272ZM36.256 103.272C36.256 102.848 36.136 102.492 35.896 102.204C35.648 101.908 35.284 101.688 34.804 101.544C34.324 101.392 33.736 101.316 33.04 101.316C32.344 101.316 31.756 101.392 31.276 101.544C30.796 101.688 30.436 101.908 30.196 102.204C29.948 102.492 29.824 102.848 29.824 103.272C29.824 103.696 29.948 104.056 30.196 104.352C30.436 104.64 30.796 104.86 31.276 105.012C31.756 105.156 32.344 105.228 33.04 105.228C33.736 105.228 34.324 105.156 34.804 105.012C35.284 104.86 35.648 104.64 35.896 104.352C36.136 104.056 36.256 103.696 36.256 103.272Z" fill="black"/>
<path d="M37 136.504H31.192C31.056 136.504 30.912 136.504 30.76 136.504C30.6 136.496 30.436 136.488 30.268 136.48C30.532 136.752 30.764 137.068 30.964 137.428C31.156 137.788 31.296 138.156 31.384 138.532L30.508 138.784C30.492 138.64 30.44 138.46 30.352 138.244C30.256 138.02 30.14 137.788 30.004 137.548C29.86 137.3 29.708 137.072 29.548 136.864C29.388 136.656 29.232 136.496 29.08 136.384V135.544H37V136.504ZM37.12 130.88C37.12 131.584 36.96 132.152 36.64 132.584C36.32 133.008 35.876 133.336 35.308 133.568L34.816 132.632C35.232 132.504 35.572 132.308 35.836 132.044C36.092 131.772 36.22 131.376 36.22 130.856C36.22 130.488 36.152 130.176 36.016 129.92C35.88 129.656 35.688 129.452 35.44 129.308C35.184 129.164 34.88 129.092 34.528 129.092C34.152 129.092 33.84 129.16 33.592 129.296C33.336 129.424 33.144 129.612 33.016 129.86C32.888 130.108 32.824 130.412 32.824 130.772C32.824 131.028 32.852 131.268 32.908 131.492C32.956 131.708 33.036 131.904 33.148 132.08C33.26 132.256 33.408 132.408 33.592 132.536L33.436 133.376L29.08 132.908V128.456H29.98V132.092L32.476 132.404L32.584 132.428V132.404C32.384 132.212 32.224 131.968 32.104 131.672C31.984 131.368 31.924 131.008 31.924 130.592C31.924 130.088 32.032 129.652 32.248 129.284C32.456 128.908 32.752 128.616 33.136 128.408C33.52 128.2 33.968 128.096 34.48 128.096C34.888 128.096 35.256 128.164 35.584 128.3C35.912 128.436 36.192 128.628 36.424 128.876C36.648 129.124 36.82 129.42 36.94 129.764C37.06 130.1 37.12 130.472 37.12 130.88Z" fill="black"/>
<path d="M37 162.504H31.192C31.056 162.504 30.912 162.504 30.76 162.504C30.6 162.496 30.436 162.488 30.268 162.48C30.532 162.752 30.764 163.068 30.964 163.428C31.156 163.788 31.296 164.156 31.384 164.532L30.508 164.784C30.492 164.64 30.44 164.46 30.352 164.244C30.256 164.02 30.14 163.788 30.004 163.548C29.86 163.3 29.708 163.072 29.548 162.864C29.388 162.656 29.232 162.496 29.08 162.384V161.544H37V162.504ZM37.12 156.592C37.12 157.488 36.772 158.204 36.076 158.74C35.38 159.276 34.368 159.544 33.04 159.544C31.712 159.544 30.7 159.276 30.004 158.74C29.308 158.204 28.96 157.488 28.96 156.592C28.96 155.688 29.308 154.972 30.004 154.444C30.7 153.908 31.712 153.64 33.04 153.64C34.368 153.64 35.38 153.908 36.076 154.444C36.772 154.972 37.12 155.688 37.12 156.592ZM36.256 156.592C36.256 156.168 36.136 155.812 35.896 155.524C35.648 155.228 35.284 155.008 34.804 154.864C34.324 154.712 33.736 154.636 33.04 154.636C32.344 154.636 31.756 154.712 31.276 154.864C30.796 155.008 30.436 155.228 30.196 155.524C29.948 155.812 29.824 156.168 29.824 156.592C29.824 157.016 29.948 157.376 30.196 157.672C30.436 157.96 30.796 158.18 31.276 158.332C31.756 158.476 32.344 158.548 33.04 158.548C33.736 158.548 34.324 158.476 34.804 158.332C35.284 158.18 35.648 157.96 35.896 157.672C36.136 157.376 36.256 157.016 36.256 156.592Z" fill="black"/>
<path d="M37.12 181.556C37.12 182.26 36.96 182.828 36.64 183.26C36.32 183.684 35.876 184.012 35.308 184.244L34.816 183.308C35.232 183.18 35.572 182.984 35.836 182.72C36.092 182.448 36.22 182.052 36.22 181.532C36.22 181.164 36.152 180.852 36.016 180.596C35.88 180.332 35.688 180.128 35.44 179.984C35.184 179.84 34.88 179.768 34.528 179.768C34.152 179.768 33.84 179.836 33.592 179.972C33.336 180.1 33.144 180.288 33.016 180.536C32.888 180.784 32.824 181.088 32.824 181.448C32.824 181.704 32.852 181.944 32.908 182.168C32.956 182.384 33.036 182.58 33.148 182.756C33.26 182.932 33.408 183.084 33.592 183.212L33.436 184.052L29.08 183.584V179.132H29.98V182.768L32.476 183.08L32.584 183.104V183.08C32.384 182.888 32.224 182.644 32.104 182.348C31.984 182.044 31.924 181.684 31.924 181.268C31.924 180.764 32.032 180.328 32.248 179.96C32.456 179.584 32.752 179.292 33.136 179.084C33.52 178.876 33.968 178.772 34.48 178.772C34.888 178.772 35.256 178.84 35.584 178.976C35.912 179.112 36.192 179.304 36.424 179.552C36.648 179.8 36.82 180.096 36.94 180.44C37.06 180.776 37.12 181.148 37.12 181.556Z" fill="black"/>
<path d="M37.12 201.268C37.12 202.164 36.772 202.88 36.076 203.416C35.38 203.952 34.368 204.22 33.04 204.22C31.712 204.22 30.7 203.952 30.004 203.416C29.308 202.88 28.96 202.164 28.96 201.268C28.96 200.364 29.308 199.648 30.004 199.12C30.7 198.584 31.712 198.316 33.04 198.316C34.368 198.316 35.38 198.584 36.076 199.12C36.772 199.648 37.12 200.364 37.12 201.268ZM36.256 201.268C36.256 200.844 36.136 200.488 35.896 200.2C35.648 199.904 35.284 199.684 34.804 199.54C34.324 199.388 33.736 199.312 33.04 199.312C32.344 199.312 31.756 199.388 31.276 199.54C30.796 199.684 30.436 199.904 30.196 200.2C29.948 200.488 29.824 200.844 29.824 201.268C29.824 201.692 29.948 202.052 30.196 202.348C30.436 202.636 30.796 202.856 31.276 203.008C31.756 203.152 32.344 203.224 33.04 203.224C33.736 203.224 34.324 203.152 34.804 203.008C35.284 202.856 35.648 202.636 35.896 202.348C36.136 202.052 36.256 201.692 36.256 201.268Z" fill="black"/>
<path d="M367.444 237.12C366.74 237.12 366.172 236.96 365.74 236.64C365.316 236.32 364.988 235.876 364.756 235.308L365.692 234.816C365.82 235.232 366.016 235.572 366.28 235.836C366.552 236.092 366.948 236.22 367.468 236.22C367.836 236.22 368.148 236.152 368.404 236.016C368.668 235.88 368.872 235.688 369.016 235.44C369.16 235.184 369.232 234.88 369.232 234.528C369.232 234.152 369.164 233.84 369.028 233.592C368.9 233.336 368.712 233.144 368.464 233.016C368.216 232.888 367.912 232.824 367.552 232.824C367.296 232.824 367.056 232.852 366.832 232.908C366.616 232.956 366.42 233.036 366.244 233.148C366.068 233.26 365.916 233.408 365.788 233.592L364.948 233.436L365.416 229.08H369.868V229.98H366.232L365.92 232.476L365.896 232.584H365.92C366.112 232.384 366.356 232.224 366.652 232.104C366.956 231.984 367.316 231.924 367.732 231.924C368.236 231.924 368.672 232.032 369.04 232.248C369.416 232.456 369.708 232.752 369.916 233.136C370.124 233.52 370.228 233.968 370.228 234.48C370.228 234.888 370.16 235.256 370.024 235.584C369.888 235.912 369.696 236.192 369.448 236.424C369.2 236.648 368.904 236.82 368.56 236.94C368.224 237.06 367.852 237.12 367.444 237.12ZM374.716 237.12C373.82 237.12 373.104 236.772 372.568 236.076C372.032 235.38 371.764 234.368 371.764 233.04C371.764 231.712 372.032 230.7 372.568 230.004C373.104 229.308 373.82 228.96 374.716 228.96C375.62 228.96 376.336 229.308 376.864 230.004C377.4 230.7 377.668 231.712 377.668 233.04C377.668 234.368 377.4 235.38 376.864 236.076C376.336 236.772 375.62 237.12 374.716 237.12ZM374.716 236.256C375.14 236.256 375.496 236.136 375.784 235.896C376.08 235.648 376.3 235.284 376.444 234.804C376.596 234.324 376.672 233.736 376.672 233.04C376.672 232.344 376.596 231.756 376.444 231.276C376.3 230.796 376.08 230.436 375.784 230.196C375.496 229.948 375.14 229.824 374.716 229.824C374.292 229.824 373.932 229.948 373.636 230.196C373.348 230.436 373.128 230.796 372.976 231.276C372.832 231.756 372.76 232.344 372.76 233.04C372.76 233.736 372.832 234.324 372.976 234.804C373.128 235.284 373.348 235.648 373.636 235.896C373.932 236.136 374.292 236.256 374.716 236.256Z" fill="black"/>
<path d="M307.392 237V234.924H303.528V234.216L307.14 229.08H308.352V234.096H309.756V234.924H308.352V237H307.392ZM304.548 234.096H307.392V231.132C307.392 230.924 307.396 230.712 307.404 230.496C307.42 230.28 307.432 230.068 307.44 229.86H307.416C307.32 230.06 307.196 230.284 307.044 230.532C306.892 230.78 306.752 230.996 306.624 231.18L304.548 234.096ZM314.068 237.12C313.172 237.12 312.456 236.772 311.92 236.076C311.384 235.38 311.116 234.368 311.116 233.04C311.116 231.712 311.384 230.7 311.92 230.004C312.456 229.308 313.172 228.96 314.068 228.96C314.972 228.96 315.688 229.308 316.216 230.004C316.752 230.7 317.02 231.712 317.02 233.04C317.02 234.368 316.752 235.38 316.216 236.076C315.688 236.772 314.972 237.12 314.068 237.12ZM314.068 236.256C314.492 236.256 314.848 236.136 315.136 235.896C315.432 235.648 315.652 235.284 315.796 234.804C315.948 234.324 316.024 233.736 316.024 233.04C316.024 232.344 315.948 231.756 315.796 231.276C315.652 230.796 315.432 230.436 315.136 230.196C314.848 229.948 314.492 229.824 314.068 229.824C313.644 229.824 313.284 229.948 312.988 230.196C312.7 230.436 312.48 230.796 312.328 231.276C312.184 231.756 312.112 232.344 312.112 233.04C312.112 233.736 312.184 234.324 312.328 234.804C312.48 235.284 312.7 235.648 312.988 235.896C313.284 236.136 313.644 236.256 314.068 236.256Z" fill="black"/>
<path d="M245.48 237.12C244.776 237.12 244.152 236.956 243.608 236.628C243.072 236.292 242.708 235.832 242.516 235.248L243.476 234.756C243.572 235.052 243.704 235.312 243.872 235.536C244.04 235.752 244.26 235.92 244.532 236.04C244.812 236.16 245.16 236.22 245.576 236.22C245.928 236.22 246.224 236.156 246.464 236.028C246.704 235.9 246.888 235.728 247.016 235.512C247.144 235.288 247.208 235.032 247.208 234.744C247.208 234.456 247.152 234.216 247.04 234.024C246.936 233.832 246.768 233.692 246.536 233.604C246.304 233.508 246 233.46 245.624 233.46C245.536 233.46 245.44 233.464 245.336 233.472C245.232 233.472 245.124 233.48 245.012 233.496V232.536C245.084 232.544 245.152 232.548 245.216 232.548C245.288 232.548 245.352 232.548 245.408 232.548C245.992 232.548 246.408 232.436 246.656 232.212C246.904 231.98 247.028 231.62 247.028 231.132C247.028 230.716 246.9 230.4 246.644 230.184C246.388 229.968 246.024 229.86 245.552 229.86C245.048 229.86 244.664 229.972 244.4 230.196C244.136 230.412 243.928 230.708 243.776 231.084L242.864 230.652C242.992 230.316 243.184 230.02 243.44 229.764C243.696 229.508 244.004 229.308 244.364 229.164C244.732 229.02 245.136 228.948 245.576 228.948C246.128 228.948 246.584 229.044 246.944 229.236C247.304 229.42 247.572 229.668 247.748 229.98C247.932 230.292 248.024 230.636 248.024 231.012C248.024 231.3 247.984 231.56 247.904 231.792C247.824 232.016 247.712 232.212 247.568 232.38C247.432 232.548 247.276 232.684 247.1 232.788C246.924 232.884 246.736 232.948 246.536 232.98V233.004C246.8 233.012 247.032 233.064 247.232 233.16C247.44 233.256 247.616 233.384 247.76 233.544C247.904 233.704 248.012 233.888 248.084 234.096C248.164 234.296 248.204 234.508 248.204 234.732C248.204 235.196 248.088 235.608 247.856 235.968C247.632 236.328 247.316 236.612 246.908 236.82C246.5 237.02 246.024 237.12 245.48 237.12ZM252.728 237.12C251.832 237.12 251.116 236.772 250.58 236.076C250.044 235.38 249.776 234.368 249.776 233.04C249.776 231.712 250.044 230.7 250.58 230.004C251.116 229.308 251.832 228.96 252.728 228.96C253.632 228.96 254.348 229.308 254.876 230.004C255.412 230.7 255.68 231.712 255.68 233.04C255.68 234.368 255.412 235.38 254.876 236.076C254.348 236.772 253.632 237.12 252.728 237.12ZM252.728 236.256C253.152 236.256 253.508 236.136 253.796 235.896C254.092 235.648 254.312 235.284 254.456 234.804C254.608 234.324 254.684 233.736 254.684 233.04C254.684 232.344 254.608 231.756 254.456 231.276C254.312 230.796 254.092 230.436 253.796 230.196C253.508 229.948 253.152 229.824 252.728 229.824C252.304 229.824 251.944 229.948 251.648 230.196C251.36 230.436 251.14 230.796 250.988 231.276C250.844 231.756 250.772 232.344 250.772 233.04C250.772 233.736 250.844 234.324 250.988 234.804C251.14 235.284 251.36 235.648 251.648 235.896C251.944 236.136 252.304 236.256 252.728 236.256Z" fill="black"/>
<path d="M182.888 237V236.22C183.68 235.636 184.34 235.124 184.868 234.684C185.404 234.244 185.832 233.844 186.152 233.484C186.472 233.124 186.7 232.784 186.836 232.464C186.972 232.136 187.04 231.796 187.04 231.444C187.04 230.972 186.888 230.592 186.584 230.304C186.288 230.008 185.88 229.86 185.36 229.86C184.816 229.86 184.38 230.04 184.052 230.4C183.724 230.752 183.532 231.224 183.476 231.816L182.636 231.312C182.708 230.848 182.856 230.44 183.08 230.088C183.312 229.736 183.62 229.46 184.004 229.26C184.396 229.06 184.86 228.96 185.396 228.96C185.804 228.96 186.168 229.02 186.488 229.14C186.816 229.26 187.096 229.432 187.328 229.656C187.56 229.872 187.736 230.132 187.856 230.436C187.984 230.74 188.048 231.076 188.048 231.444C188.048 231.94 187.928 232.428 187.688 232.908C187.448 233.38 187.052 233.876 186.5 234.396C185.948 234.916 185.2 235.492 184.256 236.124V236.136C184.344 236.128 184.464 236.124 184.616 236.124C184.776 236.116 184.932 236.112 185.084 236.112C185.244 236.104 185.364 236.1 185.444 236.1H188.216V237H182.888ZM192.728 237.12C191.832 237.12 191.116 236.772 190.58 236.076C190.044 235.38 189.776 234.368 189.776 233.04C189.776 231.712 190.044 230.7 190.58 230.004C191.116 229.308 191.832 228.96 192.728 228.96C193.632 228.96 194.348 229.308 194.876 230.004C195.412 230.7 195.68 231.712 195.68 233.04C195.68 234.368 195.412 235.38 194.876 236.076C194.348 236.772 193.632 237.12 192.728 237.12ZM192.728 236.256C193.152 236.256 193.508 236.136 193.796 235.896C194.092 235.648 194.312 235.284 194.456 234.804C194.608 234.324 194.684 233.736 194.684 233.04C194.684 232.344 194.608 231.756 194.456 231.276C194.312 230.796 194.092 230.436 193.796 230.196C193.508 229.948 193.152 229.824 192.728 229.824C192.304 229.824 191.944 229.948 191.648 230.196C191.36 230.436 191.14 230.796 190.988 231.276C190.844 231.756 190.772 232.344 190.772 233.04C190.772 233.736 190.844 234.324 190.988 234.804C191.14 235.284 191.36 235.648 191.648 235.896C191.944 236.136 192.304 236.256 192.728 236.256Z" fill="black"/>
<path d="M125.496 237V231.192C125.496 231.056 125.496 230.912 125.496 230.76C125.504 230.6 125.512 230.436 125.52 230.268C125.248 230.532 124.932 230.764 124.572 230.964C124.212 231.156 123.844 231.296 123.468 231.384L123.216 230.508C123.36 230.492 123.54 230.44 123.756 230.352C123.98 230.256 124.212 230.14 124.452 230.004C124.7 229.86 124.928 229.708 125.136 229.548C125.344 229.388 125.504 229.232 125.616 229.08H126.456V237H125.496ZM131.408 237.12C130.512 237.12 129.796 236.772 129.26 236.076C128.724 235.38 128.456 234.368 128.456 233.04C128.456 231.712 128.724 230.7 129.26 230.004C129.796 229.308 130.512 228.96 131.408 228.96C132.312 228.96 133.028 229.308 133.556 230.004C134.092 230.7 134.36 231.712 134.36 233.04C134.36 234.368 134.092 235.38 133.556 236.076C133.028 236.772 132.312 237.12 131.408 237.12ZM131.408 236.256C131.832 236.256 132.188 236.136 132.476 235.896C132.772 235.648 132.992 235.284 133.136 234.804C133.288 234.324 133.364 233.736 133.364 233.04C133.364 232.344 133.288 231.756 133.136 231.276C132.992 230.796 132.772 230.436 132.476 230.196C132.188 229.948 131.832 229.824 131.408 229.824C130.984 229.824 130.624 229.948 130.328 230.196C130.04 230.436 129.82 230.796 129.668 231.276C129.524 231.756 129.452 232.344 129.452 233.04C129.452 233.736 129.524 234.324 129.668 234.804C129.82 235.284 130.04 235.648 130.328 235.896C130.624 236.136 130.984 236.256 131.408 236.256Z" fill="black"/>
<path d="M68.732 237.12C67.836 237.12 67.12 236.772 66.584 236.076C66.048 235.38 65.78 234.368 65.78 233.04C65.78 231.712 66.048 230.7 66.584 230.004C67.12 229.308 67.836 228.96 68.732 228.96C69.636 228.96 70.352 229.308 70.88 230.004C71.416 230.7 71.684 231.712 71.684 233.04C71.684 234.368 71.416 235.38 70.88 236.076C70.352 236.772 69.636 237.12 68.732 237.12ZM68.732 236.256C69.156 236.256 69.512 236.136 69.8 235.896C70.096 235.648 70.316 235.284 70.46 234.804C70.612 234.324 70.688 233.736 70.688 233.04C70.688 232.344 70.612 231.756 70.46 231.276C70.316 230.796 70.096 230.436 69.8 230.196C69.512 229.948 69.156 229.824 68.732 229.824C68.308 229.824 67.948 229.948 67.652 230.196C67.364 230.436 67.144 230.796 66.992 231.276C66.848 231.756 66.776 232.344 66.776 233.04C66.776 233.736 66.848 234.324 66.992 234.804C67.144 235.284 67.364 235.648 67.652 235.896C67.948 236.136 68.308 236.256 68.732 236.256Z" fill="black"/>
<line x1="71" y1="213.5" x2="371" y2="213.5" stroke="black"/>
<line x1="70.5" y1="221" x2="70.5" y2="213" stroke="black"/>
<line x1="130.5" y1="221" x2="130.5" y2="213" stroke="black"/>
<line x1="190.5" y1="221" x2="190.5" y2="213" stroke="black"/>
<line x1="250.5" y1="222" x2="250.5" y2="214" stroke="black"/>
<line x1="310.5" y1="221" x2="310.5" y2="213" stroke="black"/>
<line x1="370.5" y1="221" x2="370.5" y2="213" stroke="black"/>
<path d="M3.98 137.16L3.98 141.744H6.536V138.168H7.436V141.744H11V142.704H3.08L3.08 137.16H3.98ZM11 136.052H5V135.272L5.984 135.14C5.616 134.972 5.34 134.728 5.156 134.408C4.972 134.08 4.88 133.684 4.88 133.22C4.88 133.116 4.888 133.004 4.904 132.884C4.92 132.756 4.952 132.648 5 132.56L5.876 132.728C5.844 132.816 5.82 132.912 5.804 133.016C5.788 133.12 5.78 133.268 5.78 133.46C5.78 133.708 5.852 133.96 5.996 134.216C6.14 134.464 6.36 134.672 6.656 134.84C6.944 135.008 7.312 135.092 7.76 135.092H11V136.052ZM11.12 128.833C11.12 129.401 10.996 129.909 10.748 130.357C10.5 130.797 10.144 131.141 9.68 131.389C9.208 131.637 8.648 131.761 8 131.761C7.352 131.761 6.796 131.637 6.332 131.389C5.86 131.141 5.5 130.801 5.252 130.369C5.004 129.937 4.88 129.445 4.88 128.893C4.88 128.333 5 127.857 5.24 127.465C5.48 127.065 5.808 126.761 6.224 126.553C6.632 126.345 7.092 126.241 7.604 126.241C7.74 126.241 7.864 126.245 7.976 126.253C8.088 126.261 8.188 126.273 8.276 126.289L8.276 131.137H7.424V126.709L7.52 127.201C6.944 127.201 6.5 127.361 6.188 127.681C5.876 127.993 5.72 128.405 5.72 128.917C5.72 129.309 5.812 129.649 5.996 129.937C6.172 130.217 6.432 130.437 6.776 130.597C7.112 130.749 7.52 130.825 8 130.825C8.472 130.825 8.88 130.745 9.224 130.585C9.568 130.425 9.832 130.201 10.016 129.913C10.192 129.617 10.28 129.265 10.28 128.857C10.28 128.417 10.196 128.061 10.028 127.789C9.86 127.509 9.632 127.285 9.344 127.117L9.788 126.361C10.06 126.513 10.296 126.709 10.496 126.949C10.696 127.181 10.852 127.457 10.964 127.777C11.068 128.089 11.12 128.441 11.12 128.833ZM13.52 120.083H9.356L9.476 119.915C9.828 119.971 10.128 120.107 10.376 120.323C10.616 120.531 10.8 120.791 10.928 121.103C11.056 121.407 11.12 121.731 11.12 122.075C11.12 122.571 10.996 123.027 10.748 123.443C10.5 123.859 10.144 124.191 9.68 124.439C9.208 124.687 8.648 124.811 8 124.811C7.336 124.811 6.772 124.679 6.308 124.415C5.844 124.151 5.492 123.803 5.252 123.371C5.004 122.939 4.88 122.475 4.88 121.979C4.88 121.643 4.944 121.331 5.072 121.043C5.192 120.755 5.368 120.511 5.6 120.311C5.824 120.103 6.092 119.967 6.404 119.903V120.047L5 119.963V119.123H13.52V120.083ZM10.28 121.979C10.28 121.603 10.188 121.275 10.004 120.995C9.812 120.707 9.544 120.483 9.2 120.323C8.848 120.163 8.436 120.083 7.964 120.083C7.484 120.083 7.08 120.163 6.752 120.323C6.416 120.475 6.16 120.691 5.984 120.971C5.808 121.251 5.72 121.579 5.72 121.955C5.72 122.547 5.928 123.011 6.344 123.347C6.76 123.683 7.312 123.851 8 123.851C8.688 123.851 9.24 123.687 9.656 123.359C10.072 123.031 10.28 122.571 10.28 121.979ZM11.12 114.72C11.12 115.104 11.048 115.468 10.904 115.812C10.76 116.148 10.528 116.424 10.208 116.64C9.88 116.848 9.456 116.952 8.936 116.952H5V115.992H8.684C9.292 115.992 9.712 115.86 9.944 115.596C10.168 115.332 10.28 114.96 10.28 114.48C10.28 114.256 10.244 114.036 10.172 113.82C10.092 113.604 9.972 113.412 9.812 113.244C9.644 113.068 9.432 112.932 9.176 112.836C8.92 112.732 8.616 112.68 8.264 112.68H5V111.72H11V112.56L10.088 112.62C10.448 112.828 10.712 113.112 10.88 113.472C11.04 113.824 11.12 114.24 11.12 114.72ZM11.12 106.978C11.12 107.546 10.996 108.054 10.748 108.502C10.5 108.942 10.144 109.286 9.68 109.534C9.208 109.782 8.648 109.906 8 109.906C7.352 109.906 6.796 109.782 6.332 109.534C5.86 109.286 5.5 108.946 5.252 108.514C5.004 108.082 4.88 107.59 4.88 107.038C4.88 106.478 5 106.002 5.24 105.61C5.48 105.21 5.808 104.906 6.224 104.698C6.632 104.49 7.092 104.386 7.604 104.386C7.74 104.386 7.864 104.39 7.976 104.398C8.088 104.406 8.188 104.418 8.276 104.434V109.282H7.424L7.424 104.854L7.52 105.346C6.944 105.346 6.5 105.506 6.188 105.826C5.876 106.138 5.72 106.55 5.72 107.062C5.72 107.454 5.812 107.794 5.996 108.082C6.172 108.362 6.432 108.582 6.776 108.742C7.112 108.894 7.52 108.97 8 108.97C8.472 108.97 8.88 108.89 9.224 108.73C9.568 108.57 9.832 108.346 10.016 108.058C10.192 107.762 10.28 107.41 10.28 107.002C10.28 106.562 10.196 106.206 10.028 105.934C9.86 105.654 9.632 105.43 9.344 105.262L9.788 104.506C10.06 104.658 10.296 104.854 10.496 105.094C10.696 105.326 10.852 105.602 10.964 105.922C11.068 106.234 11.12 106.586 11.12 106.978ZM11 102.56H5V101.72L6.344 101.636L6.212 101.792C5.892 101.664 5.636 101.492 5.444 101.276C5.244 101.06 5.1 100.812 5.012 100.532C4.924 100.244 4.88 99.9478 4.88 99.6438C4.88 99.2118 4.964 98.8198 5.132 98.4678C5.292 98.1158 5.54 97.8358 5.876 97.6278C6.212 97.4118 6.64 97.3038 7.16 97.3038H11V98.2638H7.496C6.832 98.2638 6.372 98.4078 6.116 98.6958C5.852 98.9758 5.72 99.3238 5.72 99.7398C5.72 100.028 5.788 100.316 5.924 100.604C6.06 100.892 6.28 101.132 6.584 101.324C6.888 101.508 7.296 101.6 7.808 101.6H11V102.56ZM4.88 92.6461C4.88 92.2301 4.944 91.8661 5.072 91.5541C5.2 91.2341 5.384 90.9581 5.624 90.7261C5.864 90.4941 6.148 90.3061 6.476 90.1621L6.908 91.0741C6.524 91.2021 6.232 91.3981 6.032 91.6621C5.824 91.9181 5.72 92.2541 5.72 92.6701C5.72 93.0701 5.812 93.4141 5.996 93.7021C6.172 93.9901 6.432 94.2101 6.776 94.3621C7.112 94.5141 7.52 94.5901 8 94.5901C8.472 94.5901 8.88 94.5141 9.224 94.3621C9.568 94.2101 9.832 93.9901 10.016 93.7021C10.192 93.4141 10.28 93.0701 10.28 92.6701C10.28 92.3581 10.232 92.0901 10.136 91.8661C10.04 91.6341 9.9 91.4461 9.716 91.3021C9.532 91.1501 9.308 91.0461 9.044 90.9901L9.356 90.1021C9.724 90.2381 10.04 90.4261 10.304 90.6661C10.568 90.8981 10.772 91.1821 10.916 91.5181C11.052 91.8461 11.12 92.2221 11.12 92.6461C11.12 93.2061 10.996 93.7061 10.748 94.1461C10.5 94.5861 10.144 94.9301 9.68 95.1781C9.208 95.4261 8.648 95.5501 8 95.5501C7.352 95.5501 6.796 95.4261 6.332 95.1781C5.86 94.9301 5.5 94.5861 5.252 94.1461C5.004 93.7061 4.88 93.2061 4.88 92.6461ZM5 83.7059L12.008 86.5259C12.4 86.6779 12.708 86.8459 12.932 87.0299C13.164 87.2059 13.328 87.4059 13.424 87.6299C13.528 87.8459 13.58 88.0979 13.58 88.3859C13.58 88.6579 13.54 88.9099 13.46 89.1419C13.388 89.3659 13.288 89.5659 13.16 89.7419L12.32 89.4779C12.464 89.3179 12.568 89.1499 12.632 88.9739C12.704 88.7899 12.74 88.6099 12.74 88.4339C12.74 88.2259 12.676 88.0299 12.548 87.8459C12.42 87.6619 12.16 87.4939 11.768 87.3419L10.988 87.0299L9.56 87.6299L5 89.5379V88.4459L8.912 86.9459L9.98 86.5739L8.792 86.1419L5 84.7379V83.7059Z" fill="black"/>
<path d="M183.852 254.08C185.092 254.08 186.064 254.424 186.768 255.112C187.48 255.792 187.836 256.768 187.836 258.04C187.836 259.312 187.48 260.292 186.768 260.98C186.064 261.66 185.092 262 183.852 262H181.296V254.08H183.852ZM183.948 261.1C184.852 261.1 185.556 260.832 186.06 260.296C186.572 259.752 186.828 259 186.828 258.04C186.828 257.08 186.572 256.332 186.06 255.796C185.556 255.252 184.852 254.98 183.948 254.98H182.256V261.1H183.948ZM190.186 254.848C189.97 254.848 189.794 254.784 189.658 254.656C189.53 254.52 189.466 254.344 189.466 254.128C189.466 253.912 189.53 253.74 189.658 253.612C189.794 253.476 189.97 253.408 190.186 253.408C190.402 253.408 190.574 253.476 190.702 253.612C190.838 253.74 190.906 253.912 190.906 254.128C190.906 254.344 190.838 254.52 190.702 254.656C190.574 254.784 190.402 254.848 190.186 254.848ZM190.666 256V262H189.706V256H190.666ZM196.397 258.124C196.397 257.676 196.277 257.332 196.037 257.092C195.797 256.844 195.457 256.72 195.017 256.72C194.601 256.72 194.249 256.812 193.961 256.996C193.673 257.172 193.461 257.46 193.325 257.86L192.545 257.38C192.705 256.932 193.001 256.572 193.433 256.3C193.865 256.02 194.401 255.88 195.041 255.88C195.473 255.88 195.865 255.956 196.217 256.108C196.569 256.252 196.845 256.476 197.045 256.78C197.253 257.076 197.357 257.46 197.357 257.932V260.836C197.357 261.124 197.509 261.268 197.813 261.268C197.965 261.268 198.113 261.248 198.257 261.208L198.209 261.964C198.049 262.044 197.841 262.084 197.585 262.084C197.353 262.084 197.145 262.04 196.961 261.952C196.777 261.864 196.633 261.732 196.529 261.556C196.425 261.372 196.373 261.144 196.373 260.872V260.752L196.613 260.788C196.517 261.1 196.353 261.356 196.121 261.556C195.889 261.748 195.629 261.892 195.341 261.988C195.053 262.076 194.769 262.12 194.489 262.12C194.137 262.12 193.809 262.06 193.505 261.94C193.201 261.82 192.957 261.64 192.773 261.4C192.597 261.152 192.509 260.848 192.509 260.488C192.509 260.04 192.657 259.672 192.953 259.384C193.257 259.088 193.677 258.888 194.213 258.784L196.589 258.316V259.108L194.657 259.504C194.265 259.584 193.973 259.696 193.781 259.84C193.589 259.984 193.493 260.184 193.493 260.44C193.493 260.688 193.589 260.892 193.781 261.052C193.981 261.204 194.261 261.28 194.621 261.28C194.853 261.28 195.073 261.252 195.281 261.196C195.497 261.132 195.689 261.04 195.857 260.92C196.025 260.792 196.157 260.636 196.253 260.452C196.349 260.26 196.397 260.036 196.397 259.78V258.124ZM199.69 262V256H200.53L200.59 256.936C200.806 256.568 201.086 256.3 201.43 256.132C201.782 255.964 202.142 255.88 202.51 255.88C202.934 255.88 203.334 255.976 203.71 256.168C204.086 256.36 204.374 256.656 204.574 257.056C204.702 256.784 204.882 256.564 205.114 256.396C205.346 256.22 205.598 256.092 205.87 256.012C206.15 255.924 206.414 255.88 206.662 255.88C207.046 255.88 207.41 255.96 207.754 256.12C208.106 256.28 208.394 256.528 208.618 256.864C208.842 257.2 208.954 257.632 208.954 258.16V262H207.994V258.256C207.994 257.712 207.858 257.32 207.586 257.08C207.314 256.84 206.978 256.72 206.578 256.72C206.266 256.72 205.974 256.796 205.702 256.948C205.43 257.1 205.21 257.324 205.042 257.62C204.882 257.916 204.802 258.28 204.802 258.712V262H203.842V258.256C203.842 257.712 203.706 257.32 203.434 257.08C203.162 256.84 202.826 256.72 202.426 256.72C202.162 256.72 201.89 256.792 201.61 256.936C201.338 257.072 201.11 257.292 200.926 257.596C200.742 257.9 200.65 258.3 200.65 258.796V262H199.69ZM213.636 262.12C213.068 262.12 212.56 261.996 212.112 261.748C211.672 261.5 211.328 261.144 211.08 260.68C210.832 260.208 210.708 259.648 210.708 259C210.708 258.352 210.832 257.796 211.08 257.332C211.328 256.86 211.668 256.5 212.1 256.252C212.532 256.004 213.024 255.88 213.576 255.88C214.136 255.88 214.612 256 215.004 256.24C215.404 256.48 215.708 256.808 215.916 257.224C216.124 257.632 216.228 258.092 216.228 258.604C216.228 258.74 216.224 258.864 216.216 258.976C216.208 259.088 216.196 259.188 216.18 259.276H211.332V258.424H215.76L215.268 258.52C215.268 257.944 215.108 257.5 214.788 257.188C214.476 256.876 214.064 256.72 213.552 256.72C213.16 256.72 212.82 256.812 212.532 256.996C212.252 257.172 212.032 257.432 211.872 257.776C211.72 258.112 211.644 258.52 211.644 259C211.644 259.472 211.724 259.88 211.884 260.224C212.044 260.568 212.268 260.832 212.556 261.016C212.852 261.192 213.204 261.28 213.612 261.28C214.052 261.28 214.408 261.196 214.68 261.028C214.96 260.86 215.184 260.632 215.352 260.344L216.108 260.788C215.956 261.06 215.76 261.296 215.52 261.496C215.288 261.696 215.012 261.852 214.692 261.964C214.38 262.068 214.028 262.12 213.636 262.12ZM219.294 254.296V260.344C219.294 260.64 219.378 260.86 219.546 261.004C219.714 261.148 219.93 261.22 220.194 261.22C220.426 261.22 220.626 261.18 220.794 261.1C220.962 261.02 221.114 260.912 221.25 260.776L221.586 261.58C221.402 261.748 221.182 261.88 220.926 261.976C220.678 262.072 220.39 262.12 220.062 262.12C219.758 262.12 219.474 262.068 219.21 261.964C218.946 261.852 218.734 261.68 218.574 261.448C218.422 261.208 218.342 260.896 218.334 260.512V254.56L219.294 254.296ZM221.478 256V256.828H217.134V256H221.478ZM225.413 262.12C224.845 262.12 224.337 261.996 223.889 261.748C223.449 261.5 223.105 261.144 222.857 260.68C222.609 260.208 222.485 259.648 222.485 259C222.485 258.352 222.609 257.796 222.857 257.332C223.105 256.86 223.445 256.5 223.877 256.252C224.309 256.004 224.801 255.88 225.353 255.88C225.913 255.88 226.389 256 226.781 256.24C227.181 256.48 227.485 256.808 227.693 257.224C227.901 257.632 228.005 258.092 228.005 258.604C228.005 258.74 228.001 258.864 227.993 258.976C227.985 259.088 227.973 259.188 227.957 259.276H223.109V258.424H227.537L227.045 258.52C227.045 257.944 226.885 257.5 226.565 257.188C226.253 256.876 225.841 256.72 225.329 256.72C224.937 256.72 224.597 256.812 224.309 256.996C224.029 257.172 223.809 257.432 223.649 257.776C223.497 258.112 223.421 258.52 223.421 259C223.421 259.472 223.501 259.88 223.661 260.224C223.821 260.568 224.045 260.832 224.333 261.016C224.629 261.192 224.981 261.28 225.389 261.28C225.829 261.28 226.185 261.196 226.457 261.028C226.737 260.86 226.961 260.632 227.129 260.344L227.885 260.788C227.733 261.06 227.537 261.296 227.297 261.496C227.065 261.696 226.789 261.852 226.469 261.964C226.157 262.068 225.805 262.12 225.413 262.12ZM229.831 262V256H230.611L230.743 256.984C230.911 256.616 231.155 256.34 231.475 256.156C231.803 255.972 232.199 255.88 232.663 255.88C232.767 255.88 232.879 255.888 232.999 255.904C233.127 255.92 233.235 255.952 233.323 256L233.155 256.876C233.067 256.844 232.971 256.82 232.867 256.804C232.763 256.788 232.615 256.78 232.423 256.78C232.175 256.78 231.923 256.852 231.667 256.996C231.419 257.14 231.211 257.36 231.043 257.656C230.875 257.944 230.791 258.312 230.791 258.76V262H229.831ZM240.722 252.988L241.274 253.54C240.746 254.02 240.326 254.528 240.014 255.064C239.702 255.592 239.478 256.152 239.342 256.744C239.206 257.328 239.138 257.956 239.138 258.628C239.138 259.292 239.206 259.92 239.342 260.512C239.478 261.104 239.702 261.664 240.014 262.192C240.326 262.72 240.746 263.228 241.274 263.716L240.722 264.268C239.874 263.532 239.234 262.692 238.802 261.748C238.37 260.796 238.154 259.756 238.154 258.628C238.154 257.5 238.37 256.46 238.802 255.508C239.234 254.556 239.874 253.716 240.722 252.988ZM244.608 255.88C245.024 255.88 245.388 255.944 245.7 256.072C246.02 256.2 246.296 256.384 246.528 256.624C246.76 256.864 246.948 257.148 247.092 257.476L246.18 257.908C246.052 257.524 245.856 257.232 245.592 257.032C245.336 256.824 245 256.72 244.584 256.72C244.184 256.72 243.84 256.812 243.552 256.996C243.264 257.172 243.044 257.432 242.892 257.776C242.74 258.112 242.664 258.52 242.664 259C242.664 259.472 242.74 259.88 242.892 260.224C243.044 260.568 243.264 260.832 243.552 261.016C243.84 261.192 244.184 261.28 244.584 261.28C244.896 261.28 245.164 261.232 245.388 261.136C245.62 261.04 245.808 260.9 245.952 260.716C246.104 260.532 246.208 260.308 246.264 260.044L247.152 260.356C247.016 260.724 246.828 261.04 246.588 261.304C246.356 261.568 246.072 261.772 245.736 261.916C245.408 262.052 245.032 262.12 244.608 262.12C244.048 262.12 243.548 261.996 243.108 261.748C242.668 261.5 242.324 261.144 242.076 260.68C241.828 260.208 241.704 259.648 241.704 259C241.704 258.352 241.828 257.796 242.076 257.332C242.324 256.86 242.668 256.5 243.108 256.252C243.548 256.004 244.048 255.88 244.608 255.88ZM248.839 262V256H249.679L249.739 256.936C249.955 256.568 250.235 256.3 250.579 256.132C250.931 255.964 251.291 255.88 251.659 255.88C252.083 255.88 252.483 255.976 252.859 256.168C253.235 256.36 253.523 256.656 253.723 257.056C253.851 256.784 254.031 256.564 254.263 256.396C254.495 256.22 254.747 256.092 255.019 256.012C255.299 255.924 255.563 255.88 255.811 255.88C256.195 255.88 256.559 255.96 256.903 256.12C257.255 256.28 257.543 256.528 257.767 256.864C257.991 257.2 258.103 257.632 258.103 258.16V262H257.143V258.256C257.143 257.712 257.007 257.32 256.735 257.08C256.463 256.84 256.127 256.72 255.727 256.72C255.415 256.72 255.123 256.796 254.851 256.948C254.579 257.1 254.359 257.324 254.191 257.62C254.031 257.916 253.951 258.28 253.951 258.712V262H252.991V258.256C252.991 257.712 252.855 257.32 252.583 257.08C252.311 256.84 251.975 256.72 251.575 256.72C251.311 256.72 251.039 256.792 250.759 256.936C250.487 257.072 250.259 257.292 250.075 257.596C249.891 257.9 249.799 258.3 249.799 258.796V262H248.839ZM259.591 264.268L259.039 263.716C259.567 263.228 259.987 262.72 260.299 262.192C260.611 261.664 260.835 261.104 260.971 260.512C261.107 259.92 261.175 259.292 261.175 258.628C261.175 257.956 261.107 257.328 260.971 256.744C260.835 256.152 260.611 255.592 260.299 255.064C259.987 254.528 259.567 254.02 259.039 253.54L259.591 252.988C260.439 253.716 261.079 254.556 261.511 255.508C261.943 256.46 262.159 257.5 262.159 258.628C262.159 259.756 261.943 260.796 261.511 261.748C261.079 262.692 260.439 263.532 259.591 264.268Z" fill="black"/>
<path d="M110.092 3.08C111.332 3.08 112.292 3.424 112.972 4.112C113.652 4.792 113.992 5.768 113.992 7.04C113.992 8.304 113.652 9.28 112.972 9.968C112.292 10.656 111.332 11 110.092 11H107.032V3.08H110.092ZM110.008 9.68C110.76 9.68 111.324 9.456 111.7 9.008C112.084 8.552 112.276 7.896 112.276 7.04C112.276 6.184 112.084 5.532 111.7 5.084C111.324 4.628 110.76 4.4 110.008 4.4H108.688V9.68H110.008ZM116.282 4.136C115.938 4.136 115.682 4.064 115.514 3.92C115.346 3.768 115.262 3.548 115.262 3.26C115.262 2.964 115.346 2.744 115.514 2.6C115.682 2.448 115.938 2.372 116.282 2.372C116.626 2.372 116.882 2.448 117.05 2.6C117.218 2.744 117.302 2.964 117.302 3.26C117.302 3.548 117.218 3.768 117.05 3.92C116.882 4.064 116.626 4.136 116.282 4.136ZM117.098 5V11H115.454V5H117.098ZM121.241 11.12C120.633 11.12 120.077 11.012 119.573 10.796C119.077 10.58 118.673 10.276 118.361 9.884L119.309 8.924C119.501 9.212 119.757 9.448 120.077 9.632C120.397 9.816 120.777 9.908 121.217 9.908C121.529 9.908 121.777 9.864 121.961 9.776C122.153 9.68 122.249 9.532 122.249 9.332C122.249 9.204 122.205 9.096 122.117 9.008C122.029 8.912 121.853 8.836 121.589 8.78L120.533 8.564C119.837 8.42 119.341 8.204 119.045 7.916C118.757 7.62 118.613 7.24 118.613 6.776C118.613 6.448 118.709 6.14 118.901 5.852C119.101 5.564 119.397 5.332 119.789 5.156C120.181 4.972 120.669 4.88 121.253 4.88C121.853 4.88 122.373 4.976 122.813 5.168C123.261 5.352 123.613 5.628 123.869 5.996L122.885 6.956C122.709 6.676 122.477 6.464 122.189 6.32C121.909 6.168 121.613 6.092 121.301 6.092C121.077 6.092 120.885 6.116 120.725 6.164C120.565 6.212 120.445 6.28 120.365 6.368C120.285 6.448 120.245 6.552 120.245 6.68C120.245 6.808 120.301 6.92 120.413 7.016C120.525 7.104 120.729 7.18 121.025 7.244L122.249 7.496C122.841 7.616 123.265 7.82 123.521 8.108C123.777 8.388 123.905 8.728 123.905 9.128C123.905 9.512 123.801 9.856 123.593 10.16C123.393 10.456 123.093 10.692 122.693 10.868C122.301 11.036 121.817 11.12 121.241 11.12ZM127.34 3.164V9.044C127.34 9.332 127.412 9.544 127.556 9.68C127.708 9.808 127.912 9.872 128.168 9.872C128.368 9.872 128.544 9.844 128.696 9.788C128.848 9.724 128.984 9.64 129.104 9.536L129.368 10.628C129.176 10.78 128.936 10.9 128.648 10.988C128.36 11.076 128.056 11.12 127.736 11.12C127.336 11.12 126.98 11.06 126.668 10.94C126.364 10.82 126.124 10.628 125.948 10.364C125.78 10.1 125.696 9.748 125.696 9.308V3.62L127.34 3.164ZM129.26 5V6.224H124.592V5H129.26ZM130.372 11V5H131.8L131.908 6.176C132.068 5.76 132.3 5.44 132.604 5.216C132.916 4.992 133.304 4.88 133.768 4.88C133.904 4.88 134.028 4.892 134.14 4.916C134.252 4.94 134.344 4.972 134.416 5.012L134.224 6.392C134.144 6.36 134.044 6.336 133.924 6.32C133.812 6.304 133.664 6.296 133.48 6.296C133.24 6.296 133.008 6.356 132.784 6.476C132.56 6.588 132.376 6.764 132.232 7.004C132.088 7.236 132.016 7.532 132.016 7.892V11H130.372ZM136.262 4.136C135.918 4.136 135.662 4.064 135.494 3.92C135.326 3.768 135.242 3.548 135.242 3.26C135.242 2.964 135.326 2.744 135.494 2.6C135.662 2.448 135.918 2.372 136.262 2.372C136.606 2.372 136.862 2.448 137.03 2.6C137.198 2.744 137.282 2.964 137.282 3.26C137.282 3.548 137.198 3.768 137.03 3.92C136.862 4.064 136.606 4.136 136.262 4.136ZM137.078 5V11H135.434V5H137.078ZM142.349 11.12C141.981 11.12 141.645 11.044 141.341 10.892C141.045 10.732 140.797 10.516 140.597 10.244C140.405 9.964 140.273 9.652 140.201 9.308L140.369 9.092L140.273 11H138.821V2.372H140.465V6.692L140.309 6.44C140.437 5.992 140.681 5.62 141.041 5.324C141.401 5.028 141.853 4.88 142.397 4.88C142.869 4.88 143.297 5.004 143.681 5.252C144.065 5.5 144.365 5.856 144.581 6.32C144.805 6.784 144.917 7.348 144.917 8.012C144.917 8.66 144.805 9.216 144.581 9.68C144.365 10.144 144.061 10.5 143.669 10.748C143.285 10.996 142.845 11.12 142.349 11.12ZM141.857 9.86C142.297 9.86 142.641 9.704 142.889 9.392C143.145 9.072 143.273 8.608 143.273 8C143.273 7.392 143.149 6.932 142.901 6.62C142.653 6.3 142.309 6.14 141.869 6.14C141.581 6.14 141.333 6.216 141.125 6.368C140.917 6.52 140.753 6.736 140.633 7.016C140.521 7.296 140.465 7.628 140.465 8.012C140.465 8.404 140.521 8.74 140.633 9.02C140.753 9.292 140.917 9.5 141.125 9.644C141.341 9.788 141.585 9.86 141.857 9.86ZM148.432 11.12C148.032 11.12 147.672 11.048 147.352 10.904C147.032 10.76 146.776 10.532 146.584 10.22C146.4 9.9 146.308 9.488 146.308 8.984V5H147.952V8.588C147.952 9.052 148.048 9.376 148.24 9.56C148.432 9.736 148.708 9.824 149.068 9.824C149.236 9.824 149.4 9.796 149.56 9.74C149.72 9.676 149.86 9.58 149.98 9.452C150.108 9.324 150.208 9.16 150.28 8.96C150.352 8.752 150.388 8.508 150.388 8.228V5H152.032V11H150.568L150.508 9.956C150.308 10.356 150.032 10.652 149.68 10.844C149.336 11.028 148.92 11.12 148.432 11.12ZM155.886 3.164V9.044C155.886 9.332 155.958 9.544 156.102 9.68C156.254 9.808 156.458 9.872 156.714 9.872C156.914 9.872 157.09 9.844 157.242 9.788C157.394 9.724 157.53 9.64 157.65 9.536L157.914 10.628C157.722 10.78 157.482 10.9 157.194 10.988C156.906 11.076 156.602 11.12 156.282 11.12C155.882 11.12 155.526 11.06 155.214 10.94C154.91 10.82 154.67 10.628 154.494 10.364C154.326 10.1 154.242 9.748 154.242 9.308V3.62L155.886 3.164ZM157.806 5V6.224H153.138V5H157.806ZM159.747 4.136C159.403 4.136 159.147 4.064 158.979 3.92C158.811 3.768 158.727 3.548 158.727 3.26C158.727 2.964 158.811 2.744 158.979 2.6C159.147 2.448 159.403 2.372 159.747 2.372C160.091 2.372 160.347 2.448 160.515 2.6C160.683 2.744 160.767 2.964 160.767 3.26C160.767 3.548 160.683 3.768 160.515 3.92C160.347 4.064 160.091 4.136 159.747 4.136ZM160.563 5V11H158.919V5H160.563ZM165.041 4.88C165.649 4.88 166.181 5.004 166.637 5.252C167.101 5.5 167.461 5.856 167.717 6.32C167.981 6.784 168.113 7.344 168.113 8C168.113 8.648 167.981 9.208 167.717 9.68C167.461 10.144 167.101 10.5 166.637 10.748C166.181 10.996 165.649 11.12 165.041 11.12C164.441 11.12 163.909 10.996 163.445 10.748C162.981 10.5 162.617 10.144 162.353 9.68C162.097 9.208 161.969 8.648 161.969 8C161.969 7.344 162.097 6.784 162.353 6.32C162.617 5.856 162.981 5.5 163.445 5.252C163.909 5.004 164.441 4.88 165.041 4.88ZM165.041 6.104C164.737 6.104 164.477 6.176 164.261 6.32C164.053 6.456 163.893 6.664 163.781 6.944C163.669 7.224 163.613 7.576 163.613 8C163.613 8.424 163.669 8.776 163.781 9.056C163.893 9.336 164.053 9.548 164.261 9.692C164.477 9.828 164.737 9.896 165.041 9.896C165.337 9.896 165.589 9.828 165.797 9.692C166.013 9.548 166.177 9.336 166.289 9.056C166.401 8.776 166.457 8.424 166.457 8C166.457 7.576 166.401 7.224 166.289 6.944C166.177 6.664 166.013 6.456 165.797 6.32C165.589 6.176 165.337 6.104 165.041 6.104ZM169.489 11V5H170.965L171.061 6.8L170.857 6.608C170.953 6.216 171.105 5.892 171.313 5.636C171.521 5.38 171.773 5.192 172.069 5.072C172.373 4.944 172.705 4.88 173.065 4.88C173.481 4.88 173.849 4.96 174.169 5.12C174.497 5.28 174.753 5.524 174.937 5.852C175.129 6.172 175.225 6.576 175.225 7.064V11H173.581V7.532C173.581 7.02 173.481 6.668 173.281 6.476C173.081 6.276 172.821 6.176 172.501 6.176C172.277 6.176 172.057 6.232 171.841 6.344C171.633 6.448 171.461 6.62 171.325 6.86C171.197 7.1 171.133 7.42 171.133 7.82V11H169.489ZM183.323 4.88C183.931 4.88 184.463 5.004 184.919 5.252C185.383 5.5 185.743 5.856 185.999 6.32C186.263 6.784 186.395 7.344 186.395 8C186.395 8.648 186.263 9.208 185.999 9.68C185.743 10.144 185.383 10.5 184.919 10.748C184.463 10.996 183.931 11.12 183.323 11.12C182.723 11.12 182.191 10.996 181.727 10.748C181.263 10.5 180.899 10.144 180.635 9.68C180.379 9.208 180.251 8.648 180.251 8C180.251 7.344 180.379 6.784 180.635 6.32C180.899 5.856 181.263 5.5 181.727 5.252C182.191 5.004 182.723 4.88 183.323 4.88ZM183.323 6.104C183.019 6.104 182.759 6.176 182.543 6.32C182.335 6.456 182.175 6.664 182.063 6.944C181.951 7.224 181.895 7.576 181.895 8C181.895 8.424 181.951 8.776 182.063 9.056C182.175 9.336 182.335 9.548 182.543 9.692C182.759 9.828 183.019 9.896 183.323 9.896C183.619 9.896 183.871 9.828 184.079 9.692C184.295 9.548 184.459 9.336 184.571 9.056C184.683 8.776 184.739 8.424 184.739 8C184.739 7.576 184.683 7.224 184.571 6.944C184.459 6.664 184.295 6.456 184.079 6.32C183.871 6.176 183.619 6.104 183.323 6.104ZM190.388 2.252C190.668 2.252 190.92 2.284 191.144 2.348C191.376 2.404 191.548 2.476 191.66 2.564L191.432 3.656C191.344 3.6 191.244 3.556 191.132 3.524C191.02 3.492 190.888 3.476 190.736 3.476C190.424 3.476 190.176 3.548 189.992 3.692C189.808 3.828 189.716 4.064 189.716 4.4V5.228L189.788 5.552V11H188.144V4.28C188.144 3.944 188.2 3.648 188.312 3.392C188.424 3.136 188.58 2.924 188.78 2.756C188.98 2.588 189.216 2.464 189.488 2.384C189.768 2.296 190.068 2.252 190.388 2.252ZM191.612 5V6.224H187.1V5H191.612ZM199.201 3.08C200.441 3.08 201.401 3.424 202.081 4.112C202.761 4.792 203.101 5.768 203.101 7.04C203.101 8.304 202.761 9.28 202.081 9.968C201.401 10.656 200.441 11 199.201 11H196.141V3.08H199.201ZM199.117 9.68C199.869 9.68 200.433 9.456 200.809 9.008C201.193 8.552 201.385 7.896 201.385 7.04C201.385 6.184 201.193 5.532 200.809 5.084C200.433 4.628 199.869 4.4 199.117 4.4H197.797V9.68H199.117ZM205.391 4.136C205.047 4.136 204.791 4.064 204.623 3.92C204.455 3.768 204.371 3.548 204.371 3.26C204.371 2.964 204.455 2.744 204.623 2.6C204.791 2.448 205.047 2.372 205.391 2.372C205.735 2.372 205.991 2.448 206.159 2.6C206.327 2.744 206.411 2.964 206.411 3.26C206.411 3.548 206.327 3.768 206.159 3.92C205.991 4.064 205.735 4.136 205.391 4.136ZM206.207 5V11H204.563V5H206.207ZM211.37 7.172C211.37 6.828 211.27 6.56 211.07 6.368C210.878 6.176 210.622 6.08 210.302 6.08C210.006 6.08 209.746 6.156 209.522 6.308C209.298 6.46 209.134 6.712 209.03 7.064L207.626 6.632C207.762 6.104 208.058 5.68 208.514 5.36C208.978 5.04 209.598 4.88 210.374 4.88C210.902 4.88 211.362 4.964 211.754 5.132C212.146 5.292 212.45 5.536 212.666 5.864C212.89 6.192 213.002 6.604 213.002 7.1V9.536C213.002 9.84 213.146 9.992 213.434 9.992C213.57 9.992 213.698 9.972 213.818 9.932L213.722 10.952C213.514 11.056 213.254 11.108 212.942 11.108C212.662 11.108 212.41 11.06 212.186 10.964C211.962 10.868 211.786 10.724 211.658 10.532C211.53 10.332 211.466 10.084 211.466 9.788V9.74L211.754 9.692C211.706 9.996 211.574 10.256 211.358 10.472C211.142 10.68 210.878 10.84 210.566 10.952C210.262 11.064 209.946 11.12 209.618 11.12C209.21 11.12 208.858 11.06 208.562 10.94C208.266 10.812 208.038 10.628 207.878 10.388C207.718 10.148 207.638 9.852 207.638 9.5C207.638 9.052 207.782 8.688 208.07 8.408C208.358 8.12 208.77 7.924 209.306 7.82L211.562 7.364L211.55 8.384L210.11 8.672C209.838 8.728 209.63 8.804 209.486 8.9C209.35 8.988 209.282 9.136 209.282 9.344C209.282 9.544 209.354 9.696 209.498 9.8C209.65 9.904 209.83 9.956 210.038 9.956C210.206 9.956 210.37 9.936 210.53 9.896C210.69 9.856 210.834 9.792 210.962 9.704C211.09 9.616 211.19 9.496 211.262 9.344C211.334 9.192 211.37 9.008 211.37 8.792V7.172ZM214.841 11V5H216.317L216.377 6.08C216.577 5.68 216.849 5.38 217.193 5.18C217.545 4.98 217.933 4.88 218.357 4.88C218.789 4.88 219.177 4.98 219.521 5.18C219.873 5.38 220.137 5.676 220.313 6.068C220.441 5.804 220.613 5.584 220.829 5.408C221.045 5.232 221.285 5.1 221.549 5.012C221.813 4.924 222.081 4.88 222.353 4.88C222.745 4.88 223.101 4.96 223.421 5.12C223.749 5.28 224.009 5.52 224.201 5.84C224.393 6.16 224.489 6.568 224.489 7.064V11H222.845V7.388C222.845 6.948 222.749 6.636 222.557 6.452C222.365 6.268 222.117 6.176 221.813 6.176C221.573 6.176 221.349 6.236 221.141 6.356C220.941 6.476 220.781 6.656 220.661 6.896C220.549 7.128 220.493 7.42 220.493 7.772V11H218.849V7.388C218.849 6.948 218.749 6.636 218.549 6.452C218.357 6.268 218.109 6.176 217.805 6.176C217.597 6.176 217.389 6.232 217.181 6.344C216.981 6.456 216.813 6.632 216.677 6.872C216.549 7.112 216.485 7.428 216.485 7.82V11H214.841ZM228.968 11.12C228.336 11.12 227.784 10.996 227.312 10.748C226.848 10.5 226.488 10.144 226.232 9.68C225.976 9.216 225.848 8.656 225.848 8C225.848 7.344 225.976 6.784 226.232 6.32C226.488 5.856 226.844 5.5 227.3 5.252C227.764 5.004 228.292 4.88 228.884 4.88C229.492 4.88 230.008 5.004 230.432 5.252C230.856 5.492 231.18 5.824 231.404 6.248C231.628 6.664 231.74 7.14 231.74 7.676C231.74 7.836 231.736 7.988 231.728 8.132C231.72 8.276 231.708 8.404 231.692 8.516H226.904V7.376H230.972L230.18 7.664C230.18 7.16 230.064 6.772 229.832 6.5C229.608 6.228 229.288 6.092 228.872 6.092C228.568 6.092 228.304 6.164 228.08 6.308C227.864 6.452 227.7 6.668 227.588 6.956C227.476 7.236 227.42 7.592 227.42 8.024C227.42 8.448 227.48 8.8 227.6 9.08C227.728 9.352 227.904 9.556 228.128 9.692C228.36 9.828 228.636 9.896 228.956 9.896C229.308 9.896 229.592 9.828 229.808 9.692C230.024 9.556 230.192 9.368 230.312 9.128L231.62 9.632C231.492 9.944 231.296 10.212 231.032 10.436C230.776 10.66 230.468 10.832 230.108 10.952C229.756 11.064 229.376 11.12 228.968 11.12ZM235.152 3.164V9.044C235.152 9.332 235.224 9.544 235.368 9.68C235.52 9.808 235.724 9.872 235.98 9.872C236.18 9.872 236.356 9.844 236.508 9.788C236.66 9.724 236.796 9.64 236.916 9.536L237.18 10.628C236.988 10.78 236.748 10.9 236.46 10.988C236.172 11.076 235.868 11.12 235.548 11.12C235.148 11.12 234.792 11.06 234.48 10.94C234.176 10.82 233.936 10.628 233.76 10.364C233.592 10.1 233.508 9.748 233.508 9.308V3.62L235.152 3.164ZM237.072 5V6.224H232.404V5H237.072ZM240.968 11.12C240.336 11.12 239.784 10.996 239.312 10.748C238.848 10.5 238.488 10.144 238.232 9.68C237.976 9.216 237.848 8.656 237.848 8C237.848 7.344 237.976 6.784 238.232 6.32C238.488 5.856 238.844 5.5 239.3 5.252C239.764 5.004 240.292 4.88 240.884 4.88C241.492 4.88 242.008 5.004 242.432 5.252C242.856 5.492 243.18 5.824 243.404 6.248C243.628 6.664 243.74 7.14 243.74 7.676C243.74 7.836 243.736 7.988 243.728 8.132C243.72 8.276 243.708 8.404 243.692 8.516H238.904V7.376H242.972L242.18 7.664C242.18 7.16 242.064 6.772 241.832 6.5C241.608 6.228 241.288 6.092 240.872 6.092C240.568 6.092 240.304 6.164 240.08 6.308C239.864 6.452 239.7 6.668 239.588 6.956C239.476 7.236 239.42 7.592 239.42 8.024C239.42 8.448 239.48 8.8 239.6 9.08C239.728 9.352 239.904 9.556 240.128 9.692C240.36 9.828 240.636 9.896 240.956 9.896C241.308 9.896 241.592 9.828 241.808 9.692C242.024 9.556 242.192 9.368 242.312 9.128L243.62 9.632C243.492 9.944 243.296 10.212 243.032 10.436C242.776 10.66 242.468 10.832 242.108 10.952C241.756 11.064 241.376 11.12 240.968 11.12ZM245.134 11V5H246.562L246.67 6.176C246.83 5.76 247.062 5.44 247.366 5.216C247.678 4.992 248.066 4.88 248.53 4.88C248.666 4.88 248.79 4.892 248.902 4.916C249.014 4.94 249.106 4.972 249.178 5.012L248.986 6.392C248.906 6.36 248.806 6.336 248.686 6.32C248.574 6.304 248.426 6.296 248.242 6.296C248.002 6.296 247.77 6.356 247.546 6.476C247.322 6.588 247.138 6.764 246.994 7.004C246.85 7.236 246.778 7.532 246.778 7.892V11H245.134ZM256.377 4.88C256.985 4.88 257.517 5.004 257.973 5.252C258.437 5.5 258.797 5.856 259.053 6.32C259.317 6.784 259.449 7.344 259.449 8C259.449 8.648 259.317 9.208 259.053 9.68C258.797 10.144 258.437 10.5 257.973 10.748C257.517 10.996 256.985 11.12 256.377 11.12C255.777 11.12 255.245 10.996 254.781 10.748C254.317 10.5 253.953 10.144 253.689 9.68C253.433 9.208 253.305 8.648 253.305 8C253.305 7.344 253.433 6.784 253.689 6.32C253.953 5.856 254.317 5.5 254.781 5.252C255.245 5.004 255.777 4.88 256.377 4.88ZM256.377 6.104C256.073 6.104 255.813 6.176 255.597 6.32C255.389 6.456 255.229 6.664 255.117 6.944C255.005 7.224 254.949 7.576 254.949 8C254.949 8.424 255.005 8.776 255.117 9.056C255.229 9.336 255.389 9.548 255.597 9.692C255.813 9.828 256.073 9.896 256.377 9.896C256.673 9.896 256.925 9.828 257.133 9.692C257.349 9.548 257.513 9.336 257.625 9.056C257.737 8.776 257.793 8.424 257.793 8C257.793 7.576 257.737 7.224 257.625 6.944C257.513 6.664 257.349 6.456 257.133 6.32C256.925 6.176 256.673 6.104 256.377 6.104ZM263.442 2.252C263.722 2.252 263.974 2.284 264.198 2.348C264.43 2.404 264.602 2.476 264.714 2.564L264.486 3.656C264.398 3.6 264.298 3.556 264.186 3.524C264.074 3.492 263.942 3.476 263.79 3.476C263.478 3.476 263.23 3.548 263.046 3.692C262.862 3.828 262.77 4.064 262.77 4.4V5.228L262.842 5.552V11H261.198V4.28C261.198 3.944 261.254 3.648 261.366 3.392C261.478 3.136 261.634 2.924 261.834 2.756C262.034 2.588 262.27 2.464 262.542 2.384C262.822 2.296 263.122 2.252 263.442 2.252ZM264.666 5V6.224H260.154V5H264.666ZM275.808 3.08V7.88C275.808 8.96 275.52 9.772 274.944 10.316C274.368 10.852 273.528 11.12 272.424 11.12C271.32 11.12 270.48 10.852 269.904 10.316C269.328 9.772 269.04 8.96 269.04 7.88V3.08H270.696V7.808C270.696 8.472 270.836 8.964 271.116 9.284C271.404 9.604 271.84 9.764 272.424 9.764C273.008 9.764 273.44 9.604 273.72 9.284C274 8.964 274.14 8.472 274.14 7.808V3.08H275.808ZM283.98 3.08V4.412H281.328V11H279.672V4.412H277.008V3.08H283.98ZM294.773 3.08V4.412H292.121V11H290.465V4.412H287.801V3.08H294.773ZM295.173 11V5H296.601L296.709 6.176C296.869 5.76 297.101 5.44 297.405 5.216C297.717 4.992 298.105 4.88 298.569 4.88C298.705 4.88 298.829 4.892 298.941 4.916C299.053 4.94 299.145 4.972 299.217 5.012L299.025 6.392C298.945 6.36 298.845 6.336 298.725 6.32C298.613 6.304 298.465 6.296 298.281 6.296C298.041 6.296 297.809 6.356 297.585 6.476C297.361 6.588 297.177 6.764 297.033 7.004C296.889 7.236 296.817 7.532 296.817 7.892V11H295.173ZM302.902 11.12C302.27 11.12 301.718 10.996 301.246 10.748C300.782 10.5 300.422 10.144 300.166 9.68C299.91 9.216 299.782 8.656 299.782 8C299.782 7.344 299.91 6.784 300.166 6.32C300.422 5.856 300.778 5.5 301.234 5.252C301.698 5.004 302.226 4.88 302.818 4.88C303.426 4.88 303.942 5.004 304.366 5.252C304.79 5.492 305.114 5.824 305.338 6.248C305.562 6.664 305.674 7.14 305.674 7.676C305.674 7.836 305.67 7.988 305.662 8.132C305.654 8.276 305.642 8.404 305.626 8.516H300.838V7.376H304.906L304.114 7.664C304.114 7.16 303.998 6.772 303.766 6.5C303.542 6.228 303.222 6.092 302.806 6.092C302.502 6.092 302.238 6.164 302.014 6.308C301.798 6.452 301.634 6.668 301.522 6.956C301.41 7.236 301.354 7.592 301.354 8.024C301.354 8.448 301.414 8.8 301.534 9.08C301.662 9.352 301.838 9.556 302.062 9.692C302.294 9.828 302.57 9.896 302.89 9.896C303.242 9.896 303.526 9.828 303.742 9.692C303.958 9.556 304.126 9.368 304.246 9.128L305.554 9.632C305.426 9.944 305.23 10.212 304.966 10.436C304.71 10.66 304.402 10.832 304.042 10.952C303.69 11.064 303.31 11.12 302.902 11.12ZM309.851 11.12C309.219 11.12 308.667 10.996 308.195 10.748C307.731 10.5 307.371 10.144 307.115 9.68C306.859 9.216 306.731 8.656 306.731 8C306.731 7.344 306.859 6.784 307.115 6.32C307.371 5.856 307.727 5.5 308.183 5.252C308.647 5.004 309.175 4.88 309.767 4.88C310.375 4.88 310.891 5.004 311.315 5.252C311.739 5.492 312.063 5.824 312.287 6.248C312.511 6.664 312.623 7.14 312.623 7.676C312.623 7.836 312.619 7.988 312.611 8.132C312.603 8.276 312.591 8.404 312.575 8.516H307.787V7.376H311.855L311.063 7.664C311.063 7.16 310.947 6.772 310.715 6.5C310.491 6.228 310.171 6.092 309.755 6.092C309.451 6.092 309.187 6.164 308.963 6.308C308.747 6.452 308.583 6.668 308.471 6.956C308.359 7.236 308.303 7.592 308.303 8.024C308.303 8.448 308.363 8.8 308.483 9.08C308.611 9.352 308.787 9.556 309.011 9.692C309.243 9.828 309.519 9.896 309.839 9.896C310.191 9.896 310.475 9.828 310.691 9.692C310.907 9.556 311.075 9.368 311.195 9.128L312.503 9.632C312.375 9.944 312.179 10.212 311.915 10.436C311.659 10.66 311.351 10.832 310.991 10.952C310.639 11.064 310.259 11.12 309.851 11.12ZM316.416 11.12C315.808 11.12 315.252 11.012 314.748 10.796C314.252 10.58 313.848 10.276 313.536 9.884L314.484 8.924C314.676 9.212 314.932 9.448 315.252 9.632C315.572 9.816 315.952 9.908 316.392 9.908C316.704 9.908 316.952 9.864 317.136 9.776C317.328 9.68 317.424 9.532 317.424 9.332C317.424 9.204 317.38 9.096 317.292 9.008C317.204 8.912 317.028 8.836 316.764 8.78L315.708 8.564C315.012 8.42 314.516 8.204 314.22 7.916C313.932 7.62 313.788 7.24 313.788 6.776C313.788 6.448 313.884 6.14 314.076 5.852C314.276 5.564 314.572 5.332 314.964 5.156C315.356 4.972 315.844 4.88 316.428 4.88C317.028 4.88 317.548 4.976 317.988 5.168C318.436 5.352 318.788 5.628 319.044 5.996L318.06 6.956C317.884 6.676 317.652 6.464 317.364 6.32C317.084 6.168 316.788 6.092 316.476 6.092C316.252 6.092 316.06 6.116 315.9 6.164C315.74 6.212 315.62 6.28 315.54 6.368C315.46 6.448 315.42 6.552 315.42 6.68C315.42 6.808 315.476 6.92 315.588 7.016C315.7 7.104 315.904 7.18 316.2 7.244L317.424 7.496C318.016 7.616 318.44 7.82 318.696 8.108C318.952 8.388 319.08 8.728 319.08 9.128C319.08 9.512 318.976 9.856 318.768 10.16C318.568 10.456 318.268 10.692 317.868 10.868C317.476 11.036 316.992 11.12 316.416 11.12Z" fill="black"/>
</svg>
