<svg width="379" height="265" viewBox="0 0 379 265" fill="none" xmlns="http://www.w3.org/2000/svg">
<rect x="130.25" y="53.25" width="29.5" height="149.5" fill="#E9C956" stroke="black" stroke-width="0.5"/>
<rect x="0.25" y="-0.25" width="29.5" height="0.5" transform="matrix(1 0 0 -1 100 202.5)" fill="#E9C956" stroke="black" stroke-width="0.5"/>
<rect x="0.25" y="-0.25" width="29.5" height="0.5" transform="matrix(1 0 0 -1 70 202.5)" fill="#E9C956" stroke="black" stroke-width="0.5"/>
<rect x="160.25" y="143.25" width="29.5" height="59.5" fill="#E9C956" stroke="black" stroke-width="0.5"/>
<rect x="190.25" y="120.25" width="29.5" height="82.5" fill="#E9C956" stroke="black" stroke-width="0.5"/>
<rect x="220.25" y="95.25" width="29.5" height="107.5" fill="#E9C956" stroke="black" stroke-width="0.5"/>
<rect x="250.25" y="124.25" width="29.5" height="78.5" fill="#E9C956" stroke="black" stroke-width="0.5"/>
<rect x="280.25" y="150.25" width="29.5" height="52.5" fill="#E9C956" stroke="black" stroke-width="0.5"/>
<rect x="310.25" y="143.25" width="29.5" height="59.5" fill="#E9C956" stroke="black" stroke-width="0.5"/>
<rect x="340.25" y="184.25" width="29.5" height="18.5" fill="#E9C956" stroke="black" stroke-width="0.5"/>
<line x1="59.5" y1="53" x2="59.5" y2="203" stroke="black"/>
<line x1="51" y1="53.5" x2="59" y2="53.5" stroke="black"/>
<line x1="51" y1="83.5" x2="59" y2="83.5" stroke="black"/>
<line x1="52" y1="113.5" x2="60" y2="113.5" stroke="black"/>
<line x1="52" y1="142.5" x2="60" y2="142.5" stroke="black"/>
<line x1="52" y1="172.5" x2="60" y2="172.5" stroke="black"/>
<line x1="52" y1="202.5" x2="60" y2="202.5" stroke="black"/>
<path d="M37 58.112H36.22C35.636 57.32 35.124 56.66 34.684 56.132C34.244 55.596 33.844 55.168 33.484 54.848C33.124 54.528 32.784 54.3 32.464 54.164C32.136 54.028 31.796 53.96 31.444 53.96C30.972 53.96 30.592 54.112 30.304 54.416C30.008 54.712 29.86 55.12 29.86 55.64C29.86 56.184 30.04 56.62 30.4 56.948C30.752 57.276 31.224 57.468 31.816 57.524L31.312 58.364C30.848 58.292 30.44 58.144 30.088 57.92C29.736 57.688 29.46 57.38 29.26 56.996C29.06 56.604 28.96 56.14 28.96 55.604C28.96 55.196 29.02 54.832 29.14 54.512C29.26 54.184 29.432 53.904 29.656 53.672C29.872 53.44 30.132 53.264 30.436 53.144C30.74 53.016 31.076 52.952 31.444 52.952C31.94 52.952 32.428 53.072 32.908 53.312C33.38 53.552 33.876 53.948 34.396 54.5C34.916 55.052 35.492 55.8 36.124 56.744H36.136C36.128 56.656 36.124 56.536 36.124 56.384C36.116 56.224 36.112 56.068 36.112 55.916C36.104 55.756 36.1 55.636 36.1 55.556V52.784H37V58.112ZM37.12 48.5599C37.12 49.2639 36.96 49.8319 36.64 50.2639C36.32 50.6879 35.876 51.0159 35.308 51.2479L34.816 50.3119C35.232 50.1839 35.572 49.9879 35.836 49.7239C36.092 49.4519 36.22 49.0559 36.22 48.5359C36.22 48.1679 36.152 47.8559 36.016 47.5999C35.88 47.3359 35.688 47.1319 35.44 46.9879C35.184 46.8439 34.88 46.7719 34.528 46.7719C34.152 46.7719 33.84 46.8399 33.592 46.9759C33.336 47.1039 33.144 47.2919 33.016 47.5399C32.888 47.7879 32.824 48.0919 32.824 48.4519C32.824 48.7079 32.852 48.9479 32.908 49.1719C32.956 49.3879 33.036 49.5839 33.148 49.7599C33.26 49.9359 33.408 50.0879 33.592 50.2159L33.436 51.0559L29.08 50.5879V46.1359H29.98V49.7719L32.476 50.0839L32.584 50.1079V50.0839C32.384 49.8919 32.224 49.6479 32.104 49.3519C31.984 49.0479 31.924 48.6879 31.924 48.2719C31.924 47.7679 32.032 47.3319 32.248 46.9639C32.456 46.5879 32.752 46.2959 33.136 46.0879C33.52 45.8799 33.968 45.7759 34.48 45.7759C34.888 45.7759 35.256 45.8439 35.584 45.9799C35.912 46.1159 36.192 46.3079 36.424 46.5559C36.648 46.8039 36.82 47.0999 36.94 47.4439C37.06 47.7799 37.12 48.1519 37.12 48.5599Z" fill="black"/>
<path d="M37 90.112H36.22C35.636 89.32 35.124 88.66 34.684 88.132C34.244 87.596 33.844 87.168 33.484 86.848C33.124 86.528 32.784 86.3 32.464 86.164C32.136 86.028 31.796 85.96 31.444 85.96C30.972 85.96 30.592 86.112 30.304 86.416C30.008 86.712 29.86 87.12 29.86 87.64C29.86 88.184 30.04 88.62 30.4 88.948C30.752 89.276 31.224 89.468 31.816 89.524L31.312 90.364C30.848 90.292 30.44 90.144 30.088 89.92C29.736 89.688 29.46 89.38 29.26 88.996C29.06 88.604 28.96 88.14 28.96 87.604C28.96 87.196 29.02 86.832 29.14 86.512C29.26 86.184 29.432 85.904 29.656 85.672C29.872 85.44 30.132 85.264 30.436 85.144C30.74 85.016 31.076 84.952 31.444 84.952C31.94 84.952 32.428 85.072 32.908 85.312C33.38 85.552 33.876 85.948 34.396 86.5C34.916 87.052 35.492 87.8 36.124 88.744H36.136C36.128 88.656 36.124 88.536 36.124 88.384C36.116 88.224 36.112 88.068 36.112 87.916C36.104 87.756 36.1 87.636 36.1 87.556V84.784H37V90.112ZM37.12 80.2719C37.12 81.1679 36.772 81.8839 36.076 82.4199C35.38 82.9559 34.368 83.2239 33.04 83.2239C31.712 83.2239 30.7 82.9559 30.004 82.4199C29.308 81.8839 28.96 81.1679 28.96 80.2719C28.96 79.3679 29.308 78.6519 30.004 78.1239C30.7 77.5879 31.712 77.3199 33.04 77.3199C34.368 77.3199 35.38 77.5879 36.076 78.1239C36.772 78.6519 37.12 79.3679 37.12 80.2719ZM36.256 80.2719C36.256 79.8479 36.136 79.4919 35.896 79.2039C35.648 78.9079 35.284 78.6879 34.804 78.5439C34.324 78.3919 33.736 78.3159 33.04 78.3159C32.344 78.3159 31.756 78.3919 31.276 78.5439C30.796 78.6879 30.436 78.9079 30.196 79.2039C29.948 79.4919 29.824 79.8479 29.824 80.2719C29.824 80.6959 29.948 81.0559 30.196 81.3519C30.436 81.6399 30.796 81.8599 31.276 82.0119C31.756 82.1559 32.344 82.2279 33.04 82.2279C33.736 82.2279 34.324 82.1559 34.804 82.0119C35.284 81.8599 35.648 81.6399 35.896 81.3519C36.136 81.0559 36.256 80.6959 36.256 80.2719Z" fill="black"/>
<path d="M37 117.504H31.192C31.056 117.504 30.912 117.504 30.76 117.504C30.6 117.496 30.436 117.488 30.268 117.48C30.532 117.752 30.764 118.068 30.964 118.428C31.156 118.788 31.296 119.156 31.384 119.532L30.508 119.784C30.492 119.64 30.44 119.46 30.352 119.244C30.256 119.02 30.14 118.788 30.004 118.548C29.86 118.3 29.708 118.072 29.548 117.864C29.388 117.656 29.232 117.496 29.08 117.384V116.544H37V117.504ZM37.12 111.88C37.12 112.584 36.96 113.152 36.64 113.584C36.32 114.008 35.876 114.336 35.308 114.568L34.816 113.632C35.232 113.504 35.572 113.308 35.836 113.044C36.092 112.772 36.22 112.376 36.22 111.856C36.22 111.488 36.152 111.176 36.016 110.92C35.88 110.656 35.688 110.452 35.44 110.308C35.184 110.164 34.88 110.092 34.528 110.092C34.152 110.092 33.84 110.16 33.592 110.296C33.336 110.424 33.144 110.612 33.016 110.86C32.888 111.108 32.824 111.412 32.824 111.772C32.824 112.028 32.852 112.268 32.908 112.492C32.956 112.708 33.036 112.904 33.148 113.08C33.26 113.256 33.408 113.408 33.592 113.536L33.436 114.376L29.08 113.908V109.456H29.98V113.092L32.476 113.404L32.584 113.428V113.404C32.384 113.212 32.224 112.968 32.104 112.672C31.984 112.368 31.924 112.008 31.924 111.592C31.924 111.088 32.032 110.652 32.248 110.284C32.456 109.908 32.752 109.616 33.136 109.408C33.52 109.2 33.968 109.096 34.48 109.096C34.888 109.096 35.256 109.164 35.584 109.3C35.912 109.436 36.192 109.628 36.424 109.876C36.648 110.124 36.82 110.42 36.94 110.764C37.06 111.1 37.12 111.472 37.12 111.88Z" fill="black"/>
<path d="M37 147.504H31.192C31.056 147.504 30.912 147.504 30.76 147.504C30.6 147.496 30.436 147.488 30.268 147.48C30.532 147.752 30.764 148.068 30.964 148.428C31.156 148.788 31.296 149.156 31.384 149.532L30.508 149.784C30.492 149.64 30.44 149.46 30.352 149.244C30.256 149.02 30.14 148.788 30.004 148.548C29.86 148.3 29.708 148.072 29.548 147.864C29.388 147.656 29.232 147.496 29.08 147.384V146.544H37V147.504ZM37.12 141.592C37.12 142.488 36.772 143.204 36.076 143.74C35.38 144.276 34.368 144.544 33.04 144.544C31.712 144.544 30.7 144.276 30.004 143.74C29.308 143.204 28.96 142.488 28.96 141.592C28.96 140.688 29.308 139.972 30.004 139.444C30.7 138.908 31.712 138.64 33.04 138.64C34.368 138.64 35.38 138.908 36.076 139.444C36.772 139.972 37.12 140.688 37.12 141.592ZM36.256 141.592C36.256 141.168 36.136 140.812 35.896 140.524C35.648 140.228 35.284 140.008 34.804 139.864C34.324 139.712 33.736 139.636 33.04 139.636C32.344 139.636 31.756 139.712 31.276 139.864C30.796 140.008 30.436 140.228 30.196 140.524C29.948 140.812 29.824 141.168 29.824 141.592C29.824 142.016 29.948 142.376 30.196 142.672C30.436 142.96 30.796 143.18 31.276 143.332C31.756 143.476 32.344 143.548 33.04 143.548C33.736 143.548 34.324 143.476 34.804 143.332C35.284 143.18 35.648 142.96 35.896 142.672C36.136 142.376 36.256 142.016 36.256 141.592Z" fill="black"/>
<path d="M37.12 173.556C37.12 174.26 36.96 174.828 36.64 175.26C36.32 175.684 35.876 176.012 35.308 176.244L34.816 175.308C35.232 175.18 35.572 174.984 35.836 174.72C36.092 174.448 36.22 174.052 36.22 173.532C36.22 173.164 36.152 172.852 36.016 172.596C35.88 172.332 35.688 172.128 35.44 171.984C35.184 171.84 34.88 171.768 34.528 171.768C34.152 171.768 33.84 171.836 33.592 171.972C33.336 172.1 33.144 172.288 33.016 172.536C32.888 172.784 32.824 173.088 32.824 173.448C32.824 173.704 32.852 173.944 32.908 174.168C32.956 174.384 33.036 174.58 33.148 174.756C33.26 174.932 33.408 175.084 33.592 175.212L33.436 176.052L29.08 175.584V171.132H29.98V174.768L32.476 175.08L32.584 175.104V175.08C32.384 174.888 32.224 174.644 32.104 174.348C31.984 174.044 31.924 173.684 31.924 173.268C31.924 172.764 32.032 172.328 32.248 171.96C32.456 171.584 32.752 171.292 33.136 171.084C33.52 170.876 33.968 170.772 34.48 170.772C34.888 170.772 35.256 170.84 35.584 170.976C35.912 171.112 36.192 171.304 36.424 171.552C36.648 171.8 36.82 172.096 36.94 172.44C37.06 172.776 37.12 173.148 37.12 173.556Z" fill="black"/>
<path d="M37.12 202.268C37.12 203.164 36.772 203.88 36.076 204.416C35.38 204.952 34.368 205.22 33.04 205.22C31.712 205.22 30.7 204.952 30.004 204.416C29.308 203.88 28.96 203.164 28.96 202.268C28.96 201.364 29.308 200.648 30.004 200.12C30.7 199.584 31.712 199.316 33.04 199.316C34.368 199.316 35.38 199.584 36.076 200.12C36.772 200.648 37.12 201.364 37.12 202.268ZM36.256 202.268C36.256 201.844 36.136 201.488 35.896 201.2C35.648 200.904 35.284 200.684 34.804 200.54C34.324 200.388 33.736 200.312 33.04 200.312C32.344 200.312 31.756 200.388 31.276 200.54C30.796 200.684 30.436 200.904 30.196 201.2C29.948 201.488 29.824 201.844 29.824 202.268C29.824 202.692 29.948 203.052 30.196 203.348C30.436 203.636 30.796 203.856 31.276 204.008C31.756 204.152 32.344 204.224 33.04 204.224C33.736 204.224 34.324 204.152 34.804 204.008C35.284 203.856 35.648 203.636 35.896 203.348C36.136 203.052 36.256 202.692 36.256 202.268Z" fill="black"/>
<path d="M367.444 237.12C366.74 237.12 366.172 236.96 365.74 236.64C365.316 236.32 364.988 235.876 364.756 235.308L365.692 234.816C365.82 235.232 366.016 235.572 366.28 235.836C366.552 236.092 366.948 236.22 367.468 236.22C367.836 236.22 368.148 236.152 368.404 236.016C368.668 235.88 368.872 235.688 369.016 235.44C369.16 235.184 369.232 234.88 369.232 234.528C369.232 234.152 369.164 233.84 369.028 233.592C368.9 233.336 368.712 233.144 368.464 233.016C368.216 232.888 367.912 232.824 367.552 232.824C367.296 232.824 367.056 232.852 366.832 232.908C366.616 232.956 366.42 233.036 366.244 233.148C366.068 233.26 365.916 233.408 365.788 233.592L364.948 233.436L365.416 229.08H369.868V229.98H366.232L365.92 232.476L365.896 232.584H365.92C366.112 232.384 366.356 232.224 366.652 232.104C366.956 231.984 367.316 231.924 367.732 231.924C368.236 231.924 368.672 232.032 369.04 232.248C369.416 232.456 369.708 232.752 369.916 233.136C370.124 233.52 370.228 233.968 370.228 234.48C370.228 234.888 370.16 235.256 370.024 235.584C369.888 235.912 369.696 236.192 369.448 236.424C369.2 236.648 368.904 236.82 368.56 236.94C368.224 237.06 367.852 237.12 367.444 237.12ZM374.716 237.12C373.82 237.12 373.104 236.772 372.568 236.076C372.032 235.38 371.764 234.368 371.764 233.04C371.764 231.712 372.032 230.7 372.568 230.004C373.104 229.308 373.82 228.96 374.716 228.96C375.62 228.96 376.336 229.308 376.864 230.004C377.4 230.7 377.668 231.712 377.668 233.04C377.668 234.368 377.4 235.38 376.864 236.076C376.336 236.772 375.62 237.12 374.716 237.12ZM374.716 236.256C375.14 236.256 375.496 236.136 375.784 235.896C376.08 235.648 376.3 235.284 376.444 234.804C376.596 234.324 376.672 233.736 376.672 233.04C376.672 232.344 376.596 231.756 376.444 231.276C376.3 230.796 376.08 230.436 375.784 230.196C375.496 229.948 375.14 229.824 374.716 229.824C374.292 229.824 373.932 229.948 373.636 230.196C373.348 230.436 373.128 230.796 372.976 231.276C372.832 231.756 372.76 232.344 372.76 233.04C372.76 233.736 372.832 234.324 372.976 234.804C373.128 235.284 373.348 235.648 373.636 235.896C373.932 236.136 374.292 236.256 374.716 236.256Z" fill="black"/>
<path d="M307.392 237V234.924H303.528V234.216L307.14 229.08H308.352V234.096H309.756V234.924H308.352V237H307.392ZM304.548 234.096H307.392V231.132C307.392 230.924 307.396 230.712 307.404 230.496C307.42 230.28 307.432 230.068 307.44 229.86H307.416C307.32 230.06 307.196 230.284 307.044 230.532C306.892 230.78 306.752 230.996 306.624 231.18L304.548 234.096ZM314.068 237.12C313.172 237.12 312.456 236.772 311.92 236.076C311.384 235.38 311.116 234.368 311.116 233.04C311.116 231.712 311.384 230.7 311.92 230.004C312.456 229.308 313.172 228.96 314.068 228.96C314.972 228.96 315.688 229.308 316.216 230.004C316.752 230.7 317.02 231.712 317.02 233.04C317.02 234.368 316.752 235.38 316.216 236.076C315.688 236.772 314.972 237.12 314.068 237.12ZM314.068 236.256C314.492 236.256 314.848 236.136 315.136 235.896C315.432 235.648 315.652 235.284 315.796 234.804C315.948 234.324 316.024 233.736 316.024 233.04C316.024 232.344 315.948 231.756 315.796 231.276C315.652 230.796 315.432 230.436 315.136 230.196C314.848 229.948 314.492 229.824 314.068 229.824C313.644 229.824 313.284 229.948 312.988 230.196C312.7 230.436 312.48 230.796 312.328 231.276C312.184 231.756 312.112 232.344 312.112 233.04C312.112 233.736 312.184 234.324 312.328 234.804C312.48 235.284 312.7 235.648 312.988 235.896C313.284 236.136 313.644 236.256 314.068 236.256Z" fill="black"/>
<path d="M245.48 237.12C244.776 237.12 244.152 236.956 243.608 236.628C243.072 236.292 242.708 235.832 242.516 235.248L243.476 234.756C243.572 235.052 243.704 235.312 243.872 235.536C244.04 235.752 244.26 235.92 244.532 236.04C244.812 236.16 245.16 236.22 245.576 236.22C245.928 236.22 246.224 236.156 246.464 236.028C246.704 235.9 246.888 235.728 247.016 235.512C247.144 235.288 247.208 235.032 247.208 234.744C247.208 234.456 247.152 234.216 247.04 234.024C246.936 233.832 246.768 233.692 246.536 233.604C246.304 233.508 246 233.46 245.624 233.46C245.536 233.46 245.44 233.464 245.336 233.472C245.232 233.472 245.124 233.48 245.012 233.496V232.536C245.084 232.544 245.152 232.548 245.216 232.548C245.288 232.548 245.352 232.548 245.408 232.548C245.992 232.548 246.408 232.436 246.656 232.212C246.904 231.98 247.028 231.62 247.028 231.132C247.028 230.716 246.9 230.4 246.644 230.184C246.388 229.968 246.024 229.86 245.552 229.86C245.048 229.86 244.664 229.972 244.4 230.196C244.136 230.412 243.928 230.708 243.776 231.084L242.864 230.652C242.992 230.316 243.184 230.02 243.44 229.764C243.696 229.508 244.004 229.308 244.364 229.164C244.732 229.02 245.136 228.948 245.576 228.948C246.128 228.948 246.584 229.044 246.944 229.236C247.304 229.42 247.572 229.668 247.748 229.98C247.932 230.292 248.024 230.636 248.024 231.012C248.024 231.3 247.984 231.56 247.904 231.792C247.824 232.016 247.712 232.212 247.568 232.38C247.432 232.548 247.276 232.684 247.1 232.788C246.924 232.884 246.736 232.948 246.536 232.98V233.004C246.8 233.012 247.032 233.064 247.232 233.16C247.44 233.256 247.616 233.384 247.76 233.544C247.904 233.704 248.012 233.888 248.084 234.096C248.164 234.296 248.204 234.508 248.204 234.732C248.204 235.196 248.088 235.608 247.856 235.968C247.632 236.328 247.316 236.612 246.908 236.82C246.5 237.02 246.024 237.12 245.48 237.12ZM252.728 237.12C251.832 237.12 251.116 236.772 250.58 236.076C250.044 235.38 249.776 234.368 249.776 233.04C249.776 231.712 250.044 230.7 250.58 230.004C251.116 229.308 251.832 228.96 252.728 228.96C253.632 228.96 254.348 229.308 254.876 230.004C255.412 230.7 255.68 231.712 255.68 233.04C255.68 234.368 255.412 235.38 254.876 236.076C254.348 236.772 253.632 237.12 252.728 237.12ZM252.728 236.256C253.152 236.256 253.508 236.136 253.796 235.896C254.092 235.648 254.312 235.284 254.456 234.804C254.608 234.324 254.684 233.736 254.684 233.04C254.684 232.344 254.608 231.756 254.456 231.276C254.312 230.796 254.092 230.436 253.796 230.196C253.508 229.948 253.152 229.824 252.728 229.824C252.304 229.824 251.944 229.948 251.648 230.196C251.36 230.436 251.14 230.796 250.988 231.276C250.844 231.756 250.772 232.344 250.772 233.04C250.772 233.736 250.844 234.324 250.988 234.804C251.14 235.284 251.36 235.648 251.648 235.896C251.944 236.136 252.304 236.256 252.728 236.256Z" fill="black"/>
<path d="M182.888 237V236.22C183.68 235.636 184.34 235.124 184.868 234.684C185.404 234.244 185.832 233.844 186.152 233.484C186.472 233.124 186.7 232.784 186.836 232.464C186.972 232.136 187.04 231.796 187.04 231.444C187.04 230.972 186.888 230.592 186.584 230.304C186.288 230.008 185.88 229.86 185.36 229.86C184.816 229.86 184.38 230.04 184.052 230.4C183.724 230.752 183.532 231.224 183.476 231.816L182.636 231.312C182.708 230.848 182.856 230.44 183.08 230.088C183.312 229.736 183.62 229.46 184.004 229.26C184.396 229.06 184.86 228.96 185.396 228.96C185.804 228.96 186.168 229.02 186.488 229.14C186.816 229.26 187.096 229.432 187.328 229.656C187.56 229.872 187.736 230.132 187.856 230.436C187.984 230.74 188.048 231.076 188.048 231.444C188.048 231.94 187.928 232.428 187.688 232.908C187.448 233.38 187.052 233.876 186.5 234.396C185.948 234.916 185.2 235.492 184.256 236.124V236.136C184.344 236.128 184.464 236.124 184.616 236.124C184.776 236.116 184.932 236.112 185.084 236.112C185.244 236.104 185.364 236.1 185.444 236.1H188.216V237H182.888ZM192.728 237.12C191.832 237.12 191.116 236.772 190.58 236.076C190.044 235.38 189.776 234.368 189.776 233.04C189.776 231.712 190.044 230.7 190.58 230.004C191.116 229.308 191.832 228.96 192.728 228.96C193.632 228.96 194.348 229.308 194.876 230.004C195.412 230.7 195.68 231.712 195.68 233.04C195.68 234.368 195.412 235.38 194.876 236.076C194.348 236.772 193.632 237.12 192.728 237.12ZM192.728 236.256C193.152 236.256 193.508 236.136 193.796 235.896C194.092 235.648 194.312 235.284 194.456 234.804C194.608 234.324 194.684 233.736 194.684 233.04C194.684 232.344 194.608 231.756 194.456 231.276C194.312 230.796 194.092 230.436 193.796 230.196C193.508 229.948 193.152 229.824 192.728 229.824C192.304 229.824 191.944 229.948 191.648 230.196C191.36 230.436 191.14 230.796 190.988 231.276C190.844 231.756 190.772 232.344 190.772 233.04C190.772 233.736 190.844 234.324 190.988 234.804C191.14 235.284 191.36 235.648 191.648 235.896C191.944 236.136 192.304 236.256 192.728 236.256Z" fill="black"/>
<path d="M125.496 237V231.192C125.496 231.056 125.496 230.912 125.496 230.76C125.504 230.6 125.512 230.436 125.52 230.268C125.248 230.532 124.932 230.764 124.572 230.964C124.212 231.156 123.844 231.296 123.468 231.384L123.216 230.508C123.36 230.492 123.54 230.44 123.756 230.352C123.98 230.256 124.212 230.14 124.452 230.004C124.7 229.86 124.928 229.708 125.136 229.548C125.344 229.388 125.504 229.232 125.616 229.08H126.456V237H125.496ZM131.408 237.12C130.512 237.12 129.796 236.772 129.26 236.076C128.724 235.38 128.456 234.368 128.456 233.04C128.456 231.712 128.724 230.7 129.26 230.004C129.796 229.308 130.512 228.96 131.408 228.96C132.312 228.96 133.028 229.308 133.556 230.004C134.092 230.7 134.36 231.712 134.36 233.04C134.36 234.368 134.092 235.38 133.556 236.076C133.028 236.772 132.312 237.12 131.408 237.12ZM131.408 236.256C131.832 236.256 132.188 236.136 132.476 235.896C132.772 235.648 132.992 235.284 133.136 234.804C133.288 234.324 133.364 233.736 133.364 233.04C133.364 232.344 133.288 231.756 133.136 231.276C132.992 230.796 132.772 230.436 132.476 230.196C132.188 229.948 131.832 229.824 131.408 229.824C130.984 229.824 130.624 229.948 130.328 230.196C130.04 230.436 129.82 230.796 129.668 231.276C129.524 231.756 129.452 232.344 129.452 233.04C129.452 233.736 129.524 234.324 129.668 234.804C129.82 235.284 130.04 235.648 130.328 235.896C130.624 236.136 130.984 236.256 131.408 236.256Z" fill="black"/>
<path d="M68.732 237.12C67.836 237.12 67.12 236.772 66.584 236.076C66.048 235.38 65.78 234.368 65.78 233.04C65.78 231.712 66.048 230.7 66.584 230.004C67.12 229.308 67.836 228.96 68.732 228.96C69.636 228.96 70.352 229.308 70.88 230.004C71.416 230.7 71.684 231.712 71.684 233.04C71.684 234.368 71.416 235.38 70.88 236.076C70.352 236.772 69.636 237.12 68.732 237.12ZM68.732 236.256C69.156 236.256 69.512 236.136 69.8 235.896C70.096 235.648 70.316 235.284 70.46 234.804C70.612 234.324 70.688 233.736 70.688 233.04C70.688 232.344 70.612 231.756 70.46 231.276C70.316 230.796 70.096 230.436 69.8 230.196C69.512 229.948 69.156 229.824 68.732 229.824C68.308 229.824 67.948 229.948 67.652 230.196C67.364 230.436 67.144 230.796 66.992 231.276C66.848 231.756 66.776 232.344 66.776 233.04C66.776 233.736 66.848 234.324 66.992 234.804C67.144 235.284 67.364 235.648 67.652 235.896C67.948 236.136 68.308 236.256 68.732 236.256Z" fill="black"/>
<line x1="71" y1="213.5" x2="371" y2="213.5" stroke="black"/>
<line x1="70.5" y1="221" x2="70.5" y2="213" stroke="black"/>
<line x1="130.5" y1="221" x2="130.5" y2="213" stroke="black"/>
<line x1="190.5" y1="221" x2="190.5" y2="213" stroke="black"/>
<line x1="250.5" y1="222" x2="250.5" y2="214" stroke="black"/>
<line x1="310.5" y1="221" x2="310.5" y2="213" stroke="black"/>
<line x1="370.5" y1="221" x2="370.5" y2="213" stroke="black"/>
<path d="M3.98 137.16L3.98 141.744H6.536V138.168H7.436V141.744H11V142.704H3.08L3.08 137.16H3.98ZM11 136.052H5V135.272L5.984 135.14C5.616 134.972 5.34 134.728 5.156 134.408C4.972 134.08 4.88 133.684 4.88 133.22C4.88 133.116 4.888 133.004 4.904 132.884C4.92 132.756 4.952 132.648 5 132.56L5.876 132.728C5.844 132.816 5.82 132.912 5.804 133.016C5.788 133.12 5.78 133.268 5.78 133.46C5.78 133.708 5.852 133.96 5.996 134.216C6.14 134.464 6.36 134.672 6.656 134.84C6.944 135.008 7.312 135.092 7.76 135.092H11V136.052ZM11.12 128.833C11.12 129.401 10.996 129.909 10.748 130.357C10.5 130.797 10.144 131.141 9.68 131.389C9.208 131.637 8.648 131.761 8 131.761C7.352 131.761 6.796 131.637 6.332 131.389C5.86 131.141 5.5 130.801 5.252 130.369C5.004 129.937 4.88 129.445 4.88 128.893C4.88 128.333 5 127.857 5.24 127.465C5.48 127.065 5.808 126.761 6.224 126.553C6.632 126.345 7.092 126.241 7.604 126.241C7.74 126.241 7.864 126.245 7.976 126.253C8.088 126.261 8.188 126.273 8.276 126.289L8.276 131.137H7.424V126.709L7.52 127.201C6.944 127.201 6.5 127.361 6.188 127.681C5.876 127.993 5.72 128.405 5.72 128.917C5.72 129.309 5.812 129.649 5.996 129.937C6.172 130.217 6.432 130.437 6.776 130.597C7.112 130.749 7.52 130.825 8 130.825C8.472 130.825 8.88 130.745 9.224 130.585C9.568 130.425 9.832 130.201 10.016 129.913C10.192 129.617 10.28 129.265 10.28 128.857C10.28 128.417 10.196 128.061 10.028 127.789C9.86 127.509 9.632 127.285 9.344 127.117L9.788 126.361C10.06 126.513 10.296 126.709 10.496 126.949C10.696 127.181 10.852 127.457 10.964 127.777C11.068 128.089 11.12 128.441 11.12 128.833ZM13.52 120.083H9.356L9.476 119.915C9.828 119.971 10.128 120.107 10.376 120.323C10.616 120.531 10.8 120.791 10.928 121.103C11.056 121.407 11.12 121.731 11.12 122.075C11.12 122.571 10.996 123.027 10.748 123.443C10.5 123.859 10.144 124.191 9.68 124.439C9.208 124.687 8.648 124.811 8 124.811C7.336 124.811 6.772 124.679 6.308 124.415C5.844 124.151 5.492 123.803 5.252 123.371C5.004 122.939 4.88 122.475 4.88 121.979C4.88 121.643 4.944 121.331 5.072 121.043C5.192 120.755 5.368 120.511 5.6 120.311C5.824 120.103 6.092 119.967 6.404 119.903V120.047L5 119.963V119.123H13.52V120.083ZM10.28 121.979C10.28 121.603 10.188 121.275 10.004 120.995C9.812 120.707 9.544 120.483 9.2 120.323C8.848 120.163 8.436 120.083 7.964 120.083C7.484 120.083 7.08 120.163 6.752 120.323C6.416 120.475 6.16 120.691 5.984 120.971C5.808 121.251 5.72 121.579 5.72 121.955C5.72 122.547 5.928 123.011 6.344 123.347C6.76 123.683 7.312 123.851 8 123.851C8.688 123.851 9.24 123.687 9.656 123.359C10.072 123.031 10.28 122.571 10.28 121.979ZM11.12 114.72C11.12 115.104 11.048 115.468 10.904 115.812C10.76 116.148 10.528 116.424 10.208 116.64C9.88 116.848 9.456 116.952 8.936 116.952H5V115.992H8.684C9.292 115.992 9.712 115.86 9.944 115.596C10.168 115.332 10.28 114.96 10.28 114.48C10.28 114.256 10.244 114.036 10.172 113.82C10.092 113.604 9.972 113.412 9.812 113.244C9.644 113.068 9.432 112.932 9.176 112.836C8.92 112.732 8.616 112.68 8.264 112.68H5V111.72H11V112.56L10.088 112.62C10.448 112.828 10.712 113.112 10.88 113.472C11.04 113.824 11.12 114.24 11.12 114.72ZM11.12 106.978C11.12 107.546 10.996 108.054 10.748 108.502C10.5 108.942 10.144 109.286 9.68 109.534C9.208 109.782 8.648 109.906 8 109.906C7.352 109.906 6.796 109.782 6.332 109.534C5.86 109.286 5.5 108.946 5.252 108.514C5.004 108.082 4.88 107.59 4.88 107.038C4.88 106.478 5 106.002 5.24 105.61C5.48 105.21 5.808 104.906 6.224 104.698C6.632 104.49 7.092 104.386 7.604 104.386C7.74 104.386 7.864 104.39 7.976 104.398C8.088 104.406 8.188 104.418 8.276 104.434V109.282H7.424L7.424 104.854L7.52 105.346C6.944 105.346 6.5 105.506 6.188 105.826C5.876 106.138 5.72 106.55 5.72 107.062C5.72 107.454 5.812 107.794 5.996 108.082C6.172 108.362 6.432 108.582 6.776 108.742C7.112 108.894 7.52 108.97 8 108.97C8.472 108.97 8.88 108.89 9.224 108.73C9.568 108.57 9.832 108.346 10.016 108.058C10.192 107.762 10.28 107.41 10.28 107.002C10.28 106.562 10.196 106.206 10.028 105.934C9.86 105.654 9.632 105.43 9.344 105.262L9.788 104.506C10.06 104.658 10.296 104.854 10.496 105.094C10.696 105.326 10.852 105.602 10.964 105.922C11.068 106.234 11.12 106.586 11.12 106.978ZM11 102.56H5V101.72L6.344 101.636L6.212 101.792C5.892 101.664 5.636 101.492 5.444 101.276C5.244 101.06 5.1 100.812 5.012 100.532C4.924 100.244 4.88 99.9478 4.88 99.6438C4.88 99.2118 4.964 98.8198 5.132 98.4678C5.292 98.1158 5.54 97.8358 5.876 97.6278C6.212 97.4118 6.64 97.3038 7.16 97.3038H11V98.2638H7.496C6.832 98.2638 6.372 98.4078 6.116 98.6958C5.852 98.9758 5.72 99.3238 5.72 99.7398C5.72 100.028 5.788 100.316 5.924 100.604C6.06 100.892 6.28 101.132 6.584 101.324C6.888 101.508 7.296 101.6 7.808 101.6H11V102.56ZM4.88 92.6461C4.88 92.2301 4.944 91.8661 5.072 91.5541C5.2 91.2341 5.384 90.9581 5.624 90.7261C5.864 90.4941 6.148 90.3061 6.476 90.1621L6.908 91.0741C6.524 91.2021 6.232 91.3981 6.032 91.6621C5.824 91.9181 5.72 92.2541 5.72 92.6701C5.72 93.0701 5.812 93.4141 5.996 93.7021C6.172 93.9901 6.432 94.2101 6.776 94.3621C7.112 94.5141 7.52 94.5901 8 94.5901C8.472 94.5901 8.88 94.5141 9.224 94.3621C9.568 94.2101 9.832 93.9901 10.016 93.7021C10.192 93.4141 10.28 93.0701 10.28 92.6701C10.28 92.3581 10.232 92.0901 10.136 91.8661C10.04 91.6341 9.9 91.4461 9.716 91.3021C9.532 91.1501 9.308 91.0461 9.044 90.9901L9.356 90.1021C9.724 90.2381 10.04 90.4261 10.304 90.6661C10.568 90.8981 10.772 91.1821 10.916 91.5181C11.052 91.8461 11.12 92.2221 11.12 92.6461C11.12 93.2061 10.996 93.7061 10.748 94.1461C10.5 94.5861 10.144 94.9301 9.68 95.1781C9.208 95.4261 8.648 95.5501 8 95.5501C7.352 95.5501 6.796 95.4261 6.332 95.1781C5.86 94.9301 5.5 94.5861 5.252 94.1461C5.004 93.7061 4.88 93.2061 4.88 92.6461ZM5 83.7059L12.008 86.5259C12.4 86.6779 12.708 86.8459 12.932 87.0299C13.164 87.2059 13.328 87.4059 13.424 87.6299C13.528 87.8459 13.58 88.0979 13.58 88.3859C13.58 88.6579 13.54 88.9099 13.46 89.1419C13.388 89.3659 13.288 89.5659 13.16 89.7419L12.32 89.4779C12.464 89.3179 12.568 89.1499 12.632 88.9739C12.704 88.7899 12.74 88.6099 12.74 88.4339C12.74 88.2259 12.676 88.0299 12.548 87.8459C12.42 87.6619 12.16 87.4939 11.768 87.3419L10.988 87.0299L9.56 87.6299L5 89.5379V88.4459L8.912 86.9459L9.98 86.5739L8.792 86.1419L5 84.7379V83.7059Z" fill="black"/>
<path d="M183.852 254.08C185.092 254.08 186.064 254.424 186.768 255.112C187.48 255.792 187.836 256.768 187.836 258.04C187.836 259.312 187.48 260.292 186.768 260.98C186.064 261.66 185.092 262 183.852 262H181.296V254.08H183.852ZM183.948 261.1C184.852 261.1 185.556 260.832 186.06 260.296C186.572 259.752 186.828 259 186.828 258.04C186.828 257.08 186.572 256.332 186.06 255.796C185.556 255.252 184.852 254.98 183.948 254.98H182.256V261.1H183.948ZM190.186 254.848C189.97 254.848 189.794 254.784 189.658 254.656C189.53 254.52 189.466 254.344 189.466 254.128C189.466 253.912 189.53 253.74 189.658 253.612C189.794 253.476 189.97 253.408 190.186 253.408C190.402 253.408 190.574 253.476 190.702 253.612C190.838 253.74 190.906 253.912 190.906 254.128C190.906 254.344 190.838 254.52 190.702 254.656C190.574 254.784 190.402 254.848 190.186 254.848ZM190.666 256V262H189.706V256H190.666ZM196.397 258.124C196.397 257.676 196.277 257.332 196.037 257.092C195.797 256.844 195.457 256.72 195.017 256.72C194.601 256.72 194.249 256.812 193.961 256.996C193.673 257.172 193.461 257.46 193.325 257.86L192.545 257.38C192.705 256.932 193.001 256.572 193.433 256.3C193.865 256.02 194.401 255.88 195.041 255.88C195.473 255.88 195.865 255.956 196.217 256.108C196.569 256.252 196.845 256.476 197.045 256.78C197.253 257.076 197.357 257.46 197.357 257.932V260.836C197.357 261.124 197.509 261.268 197.813 261.268C197.965 261.268 198.113 261.248 198.257 261.208L198.209 261.964C198.049 262.044 197.841 262.084 197.585 262.084C197.353 262.084 197.145 262.04 196.961 261.952C196.777 261.864 196.633 261.732 196.529 261.556C196.425 261.372 196.373 261.144 196.373 260.872V260.752L196.613 260.788C196.517 261.1 196.353 261.356 196.121 261.556C195.889 261.748 195.629 261.892 195.341 261.988C195.053 262.076 194.769 262.12 194.489 262.12C194.137 262.12 193.809 262.06 193.505 261.94C193.201 261.82 192.957 261.64 192.773 261.4C192.597 261.152 192.509 260.848 192.509 260.488C192.509 260.04 192.657 259.672 192.953 259.384C193.257 259.088 193.677 258.888 194.213 258.784L196.589 258.316V259.108L194.657 259.504C194.265 259.584 193.973 259.696 193.781 259.84C193.589 259.984 193.493 260.184 193.493 260.44C193.493 260.688 193.589 260.892 193.781 261.052C193.981 261.204 194.261 261.28 194.621 261.28C194.853 261.28 195.073 261.252 195.281 261.196C195.497 261.132 195.689 261.04 195.857 260.92C196.025 260.792 196.157 260.636 196.253 260.452C196.349 260.26 196.397 260.036 196.397 259.78V258.124ZM199.69 262V256H200.53L200.59 256.936C200.806 256.568 201.086 256.3 201.43 256.132C201.782 255.964 202.142 255.88 202.51 255.88C202.934 255.88 203.334 255.976 203.71 256.168C204.086 256.36 204.374 256.656 204.574 257.056C204.702 256.784 204.882 256.564 205.114 256.396C205.346 256.22 205.598 256.092 205.87 256.012C206.15 255.924 206.414 255.88 206.662 255.88C207.046 255.88 207.41 255.96 207.754 256.12C208.106 256.28 208.394 256.528 208.618 256.864C208.842 257.2 208.954 257.632 208.954 258.16V262H207.994V258.256C207.994 257.712 207.858 257.32 207.586 257.08C207.314 256.84 206.978 256.72 206.578 256.72C206.266 256.72 205.974 256.796 205.702 256.948C205.43 257.1 205.21 257.324 205.042 257.62C204.882 257.916 204.802 258.28 204.802 258.712V262H203.842V258.256C203.842 257.712 203.706 257.32 203.434 257.08C203.162 256.84 202.826 256.72 202.426 256.72C202.162 256.72 201.89 256.792 201.61 256.936C201.338 257.072 201.11 257.292 200.926 257.596C200.742 257.9 200.65 258.3 200.65 258.796V262H199.69ZM213.636 262.12C213.068 262.12 212.56 261.996 212.112 261.748C211.672 261.5 211.328 261.144 211.08 260.68C210.832 260.208 210.708 259.648 210.708 259C210.708 258.352 210.832 257.796 211.08 257.332C211.328 256.86 211.668 256.5 212.1 256.252C212.532 256.004 213.024 255.88 213.576 255.88C214.136 255.88 214.612 256 215.004 256.24C215.404 256.48 215.708 256.808 215.916 257.224C216.124 257.632 216.228 258.092 216.228 258.604C216.228 258.74 216.224 258.864 216.216 258.976C216.208 259.088 216.196 259.188 216.18 259.276H211.332V258.424H215.76L215.268 258.52C215.268 257.944 215.108 257.5 214.788 257.188C214.476 256.876 214.064 256.72 213.552 256.72C213.16 256.72 212.82 256.812 212.532 256.996C212.252 257.172 212.032 257.432 211.872 257.776C211.72 258.112 211.644 258.52 211.644 259C211.644 259.472 211.724 259.88 211.884 260.224C212.044 260.568 212.268 260.832 212.556 261.016C212.852 261.192 213.204 261.28 213.612 261.28C214.052 261.28 214.408 261.196 214.68 261.028C214.96 260.86 215.184 260.632 215.352 260.344L216.108 260.788C215.956 261.06 215.76 261.296 215.52 261.496C215.288 261.696 215.012 261.852 214.692 261.964C214.38 262.068 214.028 262.12 213.636 262.12ZM219.294 254.296V260.344C219.294 260.64 219.378 260.86 219.546 261.004C219.714 261.148 219.93 261.22 220.194 261.22C220.426 261.22 220.626 261.18 220.794 261.1C220.962 261.02 221.114 260.912 221.25 260.776L221.586 261.58C221.402 261.748 221.182 261.88 220.926 261.976C220.678 262.072 220.39 262.12 220.062 262.12C219.758 262.12 219.474 262.068 219.21 261.964C218.946 261.852 218.734 261.68 218.574 261.448C218.422 261.208 218.342 260.896 218.334 260.512V254.56L219.294 254.296ZM221.478 256V256.828H217.134V256H221.478ZM225.413 262.12C224.845 262.12 224.337 261.996 223.889 261.748C223.449 261.5 223.105 261.144 222.857 260.68C222.609 260.208 222.485 259.648 222.485 259C222.485 258.352 222.609 257.796 222.857 257.332C223.105 256.86 223.445 256.5 223.877 256.252C224.309 256.004 224.801 255.88 225.353 255.88C225.913 255.88 226.389 256 226.781 256.24C227.181 256.48 227.485 256.808 227.693 257.224C227.901 257.632 228.005 258.092 228.005 258.604C228.005 258.74 228.001 258.864 227.993 258.976C227.985 259.088 227.973 259.188 227.957 259.276H223.109V258.424H227.537L227.045 258.52C227.045 257.944 226.885 257.5 226.565 257.188C226.253 256.876 225.841 256.72 225.329 256.72C224.937 256.72 224.597 256.812 224.309 256.996C224.029 257.172 223.809 257.432 223.649 257.776C223.497 258.112 223.421 258.52 223.421 259C223.421 259.472 223.501 259.88 223.661 260.224C223.821 260.568 224.045 260.832 224.333 261.016C224.629 261.192 224.981 261.28 225.389 261.28C225.829 261.28 226.185 261.196 226.457 261.028C226.737 260.86 226.961 260.632 227.129 260.344L227.885 260.788C227.733 261.06 227.537 261.296 227.297 261.496C227.065 261.696 226.789 261.852 226.469 261.964C226.157 262.068 225.805 262.12 225.413 262.12ZM229.831 262V256H230.611L230.743 256.984C230.911 256.616 231.155 256.34 231.475 256.156C231.803 255.972 232.199 255.88 232.663 255.88C232.767 255.88 232.879 255.888 232.999 255.904C233.127 255.92 233.235 255.952 233.323 256L233.155 256.876C233.067 256.844 232.971 256.82 232.867 256.804C232.763 256.788 232.615 256.78 232.423 256.78C232.175 256.78 231.923 256.852 231.667 256.996C231.419 257.14 231.211 257.36 231.043 257.656C230.875 257.944 230.791 258.312 230.791 258.76V262H229.831ZM240.722 252.988L241.274 253.54C240.746 254.02 240.326 254.528 240.014 255.064C239.702 255.592 239.478 256.152 239.342 256.744C239.206 257.328 239.138 257.956 239.138 258.628C239.138 259.292 239.206 259.92 239.342 260.512C239.478 261.104 239.702 261.664 240.014 262.192C240.326 262.72 240.746 263.228 241.274 263.716L240.722 264.268C239.874 263.532 239.234 262.692 238.802 261.748C238.37 260.796 238.154 259.756 238.154 258.628C238.154 257.5 238.37 256.46 238.802 255.508C239.234 254.556 239.874 253.716 240.722 252.988ZM244.608 255.88C245.024 255.88 245.388 255.944 245.7 256.072C246.02 256.2 246.296 256.384 246.528 256.624C246.76 256.864 246.948 257.148 247.092 257.476L246.18 257.908C246.052 257.524 245.856 257.232 245.592 257.032C245.336 256.824 245 256.72 244.584 256.72C244.184 256.72 243.84 256.812 243.552 256.996C243.264 257.172 243.044 257.432 242.892 257.776C242.74 258.112 242.664 258.52 242.664 259C242.664 259.472 242.74 259.88 242.892 260.224C243.044 260.568 243.264 260.832 243.552 261.016C243.84 261.192 244.184 261.28 244.584 261.28C244.896 261.28 245.164 261.232 245.388 261.136C245.62 261.04 245.808 260.9 245.952 260.716C246.104 260.532 246.208 260.308 246.264 260.044L247.152 260.356C247.016 260.724 246.828 261.04 246.588 261.304C246.356 261.568 246.072 261.772 245.736 261.916C245.408 262.052 245.032 262.12 244.608 262.12C244.048 262.12 243.548 261.996 243.108 261.748C242.668 261.5 242.324 261.144 242.076 260.68C241.828 260.208 241.704 259.648 241.704 259C241.704 258.352 241.828 257.796 242.076 257.332C242.324 256.86 242.668 256.5 243.108 256.252C243.548 256.004 244.048 255.88 244.608 255.88ZM248.839 262V256H249.679L249.739 256.936C249.955 256.568 250.235 256.3 250.579 256.132C250.931 255.964 251.291 255.88 251.659 255.88C252.083 255.88 252.483 255.976 252.859 256.168C253.235 256.36 253.523 256.656 253.723 257.056C253.851 256.784 254.031 256.564 254.263 256.396C254.495 256.22 254.747 256.092 255.019 256.012C255.299 255.924 255.563 255.88 255.811 255.88C256.195 255.88 256.559 255.96 256.903 256.12C257.255 256.28 257.543 256.528 257.767 256.864C257.991 257.2 258.103 257.632 258.103 258.16V262H257.143V258.256C257.143 257.712 257.007 257.32 256.735 257.08C256.463 256.84 256.127 256.72 255.727 256.72C255.415 256.72 255.123 256.796 254.851 256.948C254.579 257.1 254.359 257.324 254.191 257.62C254.031 257.916 253.951 258.28 253.951 258.712V262H252.991V258.256C252.991 257.712 252.855 257.32 252.583 257.08C252.311 256.84 251.975 256.72 251.575 256.72C251.311 256.72 251.039 256.792 250.759 256.936C250.487 257.072 250.259 257.292 250.075 257.596C249.891 257.9 249.799 258.3 249.799 258.796V262H248.839ZM259.591 264.268L259.039 263.716C259.567 263.228 259.987 262.72 260.299 262.192C260.611 261.664 260.835 261.104 260.971 260.512C261.107 259.92 261.175 259.292 261.175 258.628C261.175 257.956 261.107 257.328 260.971 256.744C260.835 256.152 260.611 255.592 260.299 255.064C259.987 254.528 259.567 254.02 259.039 253.54L259.591 252.988C260.439 253.716 261.079 254.556 261.511 255.508C261.943 256.46 262.159 257.5 262.159 258.628C262.159 259.756 261.943 260.796 261.511 261.748C261.079 262.692 260.439 263.532 259.591 264.268Z" fill="black"/>
<path d="M110.092 3.08C111.332 3.08 112.292 3.424 112.972 4.112C113.652 4.792 113.992 5.768 113.992 7.04C113.992 8.304 113.652 9.28 112.972 9.968C112.292 10.656 111.332 11 110.092 11H107.032V3.08H110.092ZM110.008 9.68C110.76 9.68 111.324 9.456 111.7 9.008C112.084 8.552 112.276 7.896 112.276 7.04C112.276 6.184 112.084 5.532 111.7 5.084C111.324 4.628 110.76 4.4 110.008 4.4H108.688V9.68H110.008ZM116.282 4.136C115.938 4.136 115.682 4.064 115.514 3.92C115.346 3.768 115.262 3.548 115.262 3.26C115.262 2.964 115.346 2.744 115.514 2.6C115.682 2.448 115.938 2.372 116.282 2.372C116.626 2.372 116.882 2.448 117.05 2.6C117.218 2.744 117.302 2.964 117.302 3.26C117.302 3.548 117.218 3.768 117.05 3.92C116.882 4.064 116.626 4.136 116.282 4.136ZM117.098 5V11H115.454V5H117.098ZM121.241 11.12C120.633 11.12 120.077 11.012 119.573 10.796C119.077 10.58 118.673 10.276 118.361 9.884L119.309 8.924C119.501 9.212 119.757 9.448 120.077 9.632C120.397 9.816 120.777 9.908 121.217 9.908C121.529 9.908 121.777 9.864 121.961 9.776C122.153 9.68 122.249 9.532 122.249 9.332C122.249 9.204 122.205 9.096 122.117 9.008C122.029 8.912 121.853 8.836 121.589 8.78L120.533 8.564C119.837 8.42 119.341 8.204 119.045 7.916C118.757 7.62 118.613 7.24 118.613 6.776C118.613 6.448 118.709 6.14 118.901 5.852C119.101 5.564 119.397 5.332 119.789 5.156C120.181 4.972 120.669 4.88 121.253 4.88C121.853 4.88 122.373 4.976 122.813 5.168C123.261 5.352 123.613 5.628 123.869 5.996L122.885 6.956C122.709 6.676 122.477 6.464 122.189 6.32C121.909 6.168 121.613 6.092 121.301 6.092C121.077 6.092 120.885 6.116 120.725 6.164C120.565 6.212 120.445 6.28 120.365 6.368C120.285 6.448 120.245 6.552 120.245 6.68C120.245 6.808 120.301 6.92 120.413 7.016C120.525 7.104 120.729 7.18 121.025 7.244L122.249 7.496C122.841 7.616 123.265 7.82 123.521 8.108C123.777 8.388 123.905 8.728 123.905 9.128C123.905 9.512 123.801 9.856 123.593 10.16C123.393 10.456 123.093 10.692 122.693 10.868C122.301 11.036 121.817 11.12 121.241 11.12ZM127.34 3.164V9.044C127.34 9.332 127.412 9.544 127.556 9.68C127.708 9.808 127.912 9.872 128.168 9.872C128.368 9.872 128.544 9.844 128.696 9.788C128.848 9.724 128.984 9.64 129.104 9.536L129.368 10.628C129.176 10.78 128.936 10.9 128.648 10.988C128.36 11.076 128.056 11.12 127.736 11.12C127.336 11.12 126.98 11.06 126.668 10.94C126.364 10.82 126.124 10.628 125.948 10.364C125.78 10.1 125.696 9.748 125.696 9.308V3.62L127.34 3.164ZM129.26 5V6.224H124.592V5H129.26ZM130.372 11V5H131.8L131.908 6.176C132.068 5.76 132.3 5.44 132.604 5.216C132.916 4.992 133.304 4.88 133.768 4.88C133.904 4.88 134.028 4.892 134.14 4.916C134.252 4.94 134.344 4.972 134.416 5.012L134.224 6.392C134.144 6.36 134.044 6.336 133.924 6.32C133.812 6.304 133.664 6.296 133.48 6.296C133.24 6.296 133.008 6.356 132.784 6.476C132.56 6.588 132.376 6.764 132.232 7.004C132.088 7.236 132.016 7.532 132.016 7.892V11H130.372ZM136.262 4.136C135.918 4.136 135.662 4.064 135.494 3.92C135.326 3.768 135.242 3.548 135.242 3.26C135.242 2.964 135.326 2.744 135.494 2.6C135.662 2.448 135.918 2.372 136.262 2.372C136.606 2.372 136.862 2.448 137.03 2.6C137.198 2.744 137.282 2.964 137.282 3.26C137.282 3.548 137.198 3.768 137.03 3.92C136.862 4.064 136.606 4.136 136.262 4.136ZM137.078 5V11H135.434V5H137.078ZM142.349 11.12C141.981 11.12 141.645 11.044 141.341 10.892C141.045 10.732 140.797 10.516 140.597 10.244C140.405 9.964 140.273 9.652 140.201 9.308L140.369 9.092L140.273 11H138.821V2.372H140.465V6.692L140.309 6.44C140.437 5.992 140.681 5.62 141.041 5.324C141.401 5.028 141.853 4.88 142.397 4.88C142.869 4.88 143.297 5.004 143.681 5.252C144.065 5.5 144.365 5.856 144.581 6.32C144.805 6.784 144.917 7.348 144.917 8.012C144.917 8.66 144.805 9.216 144.581 9.68C144.365 10.144 144.061 10.5 143.669 10.748C143.285 10.996 142.845 11.12 142.349 11.12ZM141.857 9.86C142.297 9.86 142.641 9.704 142.889 9.392C143.145 9.072 143.273 8.608 143.273 8C143.273 7.392 143.149 6.932 142.901 6.62C142.653 6.3 142.309 6.14 141.869 6.14C141.581 6.14 141.333 6.216 141.125 6.368C140.917 6.52 140.753 6.736 140.633 7.016C140.521 7.296 140.465 7.628 140.465 8.012C140.465 8.404 140.521 8.74 140.633 9.02C140.753 9.292 140.917 9.5 141.125 9.644C141.341 9.788 141.585 9.86 141.857 9.86ZM148.432 11.12C148.032 11.12 147.672 11.048 147.352 10.904C147.032 10.76 146.776 10.532 146.584 10.22C146.4 9.9 146.308 9.488 146.308 8.984V5H147.952V8.588C147.952 9.052 148.048 9.376 148.24 9.56C148.432 9.736 148.708 9.824 149.068 9.824C149.236 9.824 149.4 9.796 149.56 9.74C149.72 9.676 149.86 9.58 149.98 9.452C150.108 9.324 150.208 9.16 150.28 8.96C150.352 8.752 150.388 8.508 150.388 8.228V5H152.032V11H150.568L150.508 9.956C150.308 10.356 150.032 10.652 149.68 10.844C149.336 11.028 148.92 11.12 148.432 11.12ZM155.886 3.164V9.044C155.886 9.332 155.958 9.544 156.102 9.68C156.254 9.808 156.458 9.872 156.714 9.872C156.914 9.872 157.09 9.844 157.242 9.788C157.394 9.724 157.53 9.64 157.65 9.536L157.914 10.628C157.722 10.78 157.482 10.9 157.194 10.988C156.906 11.076 156.602 11.12 156.282 11.12C155.882 11.12 155.526 11.06 155.214 10.94C154.91 10.82 154.67 10.628 154.494 10.364C154.326 10.1 154.242 9.748 154.242 9.308V3.62L155.886 3.164ZM157.806 5V6.224H153.138V5H157.806ZM159.747 4.136C159.403 4.136 159.147 4.064 158.979 3.92C158.811 3.768 158.727 3.548 158.727 3.26C158.727 2.964 158.811 2.744 158.979 2.6C159.147 2.448 159.403 2.372 159.747 2.372C160.091 2.372 160.347 2.448 160.515 2.6C160.683 2.744 160.767 2.964 160.767 3.26C160.767 3.548 160.683 3.768 160.515 3.92C160.347 4.064 160.091 4.136 159.747 4.136ZM160.563 5V11H158.919V5H160.563ZM165.041 4.88C165.649 4.88 166.181 5.004 166.637 5.252C167.101 5.5 167.461 5.856 167.717 6.32C167.981 6.784 168.113 7.344 168.113 8C168.113 8.648 167.981 9.208 167.717 9.68C167.461 10.144 167.101 10.5 166.637 10.748C166.181 10.996 165.649 11.12 165.041 11.12C164.441 11.12 163.909 10.996 163.445 10.748C162.981 10.5 162.617 10.144 162.353 9.68C162.097 9.208 161.969 8.648 161.969 8C161.969 7.344 162.097 6.784 162.353 6.32C162.617 5.856 162.981 5.5 163.445 5.252C163.909 5.004 164.441 4.88 165.041 4.88ZM165.041 6.104C164.737 6.104 164.477 6.176 164.261 6.32C164.053 6.456 163.893 6.664 163.781 6.944C163.669 7.224 163.613 7.576 163.613 8C163.613 8.424 163.669 8.776 163.781 9.056C163.893 9.336 164.053 9.548 164.261 9.692C164.477 9.828 164.737 9.896 165.041 9.896C165.337 9.896 165.589 9.828 165.797 9.692C166.013 9.548 166.177 9.336 166.289 9.056C166.401 8.776 166.457 8.424 166.457 8C166.457 7.576 166.401 7.224 166.289 6.944C166.177 6.664 166.013 6.456 165.797 6.32C165.589 6.176 165.337 6.104 165.041 6.104ZM169.489 11V5H170.965L171.061 6.8L170.857 6.608C170.953 6.216 171.105 5.892 171.313 5.636C171.521 5.38 171.773 5.192 172.069 5.072C172.373 4.944 172.705 4.88 173.065 4.88C173.481 4.88 173.849 4.96 174.169 5.12C174.497 5.28 174.753 5.524 174.937 5.852C175.129 6.172 175.225 6.576 175.225 7.064V11H173.581V7.532C173.581 7.02 173.481 6.668 173.281 6.476C173.081 6.276 172.821 6.176 172.501 6.176C172.277 6.176 172.057 6.232 171.841 6.344C171.633 6.448 171.461 6.62 171.325 6.86C171.197 7.1 171.133 7.42 171.133 7.82V11H169.489ZM183.323 4.88C183.931 4.88 184.463 5.004 184.919 5.252C185.383 5.5 185.743 5.856 185.999 6.32C186.263 6.784 186.395 7.344 186.395 8C186.395 8.648 186.263 9.208 185.999 9.68C185.743 10.144 185.383 10.5 184.919 10.748C184.463 10.996 183.931 11.12 183.323 11.12C182.723 11.12 182.191 10.996 181.727 10.748C181.263 10.5 180.899 10.144 180.635 9.68C180.379 9.208 180.251 8.648 180.251 8C180.251 7.344 180.379 6.784 180.635 6.32C180.899 5.856 181.263 5.5 181.727 5.252C182.191 5.004 182.723 4.88 183.323 4.88ZM183.323 6.104C183.019 6.104 182.759 6.176 182.543 6.32C182.335 6.456 182.175 6.664 182.063 6.944C181.951 7.224 181.895 7.576 181.895 8C181.895 8.424 181.951 8.776 182.063 9.056C182.175 9.336 182.335 9.548 182.543 9.692C182.759 9.828 183.019 9.896 183.323 9.896C183.619 9.896 183.871 9.828 184.079 9.692C184.295 9.548 184.459 9.336 184.571 9.056C184.683 8.776 184.739 8.424 184.739 8C184.739 7.576 184.683 7.224 184.571 6.944C184.459 6.664 184.295 6.456 184.079 6.32C183.871 6.176 183.619 6.104 183.323 6.104ZM190.388 2.252C190.668 2.252 190.92 2.284 191.144 2.348C191.376 2.404 191.548 2.476 191.66 2.564L191.432 3.656C191.344 3.6 191.244 3.556 191.132 3.524C191.02 3.492 190.888 3.476 190.736 3.476C190.424 3.476 190.176 3.548 189.992 3.692C189.808 3.828 189.716 4.064 189.716 4.4V5.228L189.788 5.552V11H188.144V4.28C188.144 3.944 188.2 3.648 188.312 3.392C188.424 3.136 188.58 2.924 188.78 2.756C188.98 2.588 189.216 2.464 189.488 2.384C189.768 2.296 190.068 2.252 190.388 2.252ZM191.612 5V6.224H187.1V5H191.612ZM202.945 3.08V11H201.289V3.08H202.945ZM197.797 3.08V11H196.141V3.08H197.797ZM202.153 6.332V7.664H196.969V6.332H202.153ZM207.57 11.12C206.938 11.12 206.386 10.996 205.914 10.748C205.45 10.5 205.09 10.144 204.834 9.68C204.578 9.216 204.45 8.656 204.45 8C204.45 7.344 204.578 6.784 204.834 6.32C205.09 5.856 205.446 5.5 205.902 5.252C206.366 5.004 206.894 4.88 207.486 4.88C208.094 4.88 208.61 5.004 209.034 5.252C209.458 5.492 209.782 5.824 210.006 6.248C210.23 6.664 210.342 7.14 210.342 7.676C210.342 7.836 210.338 7.988 210.33 8.132C210.322 8.276 210.31 8.404 210.294 8.516H205.506V7.376H209.574L208.782 7.664C208.782 7.16 208.666 6.772 208.434 6.5C208.21 6.228 207.89 6.092 207.474 6.092C207.17 6.092 206.906 6.164 206.682 6.308C206.466 6.452 206.302 6.668 206.19 6.956C206.078 7.236 206.022 7.592 206.022 8.024C206.022 8.448 206.082 8.8 206.202 9.08C206.33 9.352 206.506 9.556 206.73 9.692C206.962 9.828 207.238 9.896 207.558 9.896C207.91 9.896 208.194 9.828 208.41 9.692C208.626 9.556 208.794 9.368 208.914 9.128L210.222 9.632C210.094 9.944 209.898 10.212 209.634 10.436C209.378 10.66 209.07 10.832 208.71 10.952C208.358 11.064 207.978 11.12 207.57 11.12ZM212.563 4.136C212.219 4.136 211.963 4.064 211.795 3.92C211.627 3.768 211.543 3.548 211.543 3.26C211.543 2.964 211.627 2.744 211.795 2.6C211.963 2.448 212.219 2.372 212.563 2.372C212.907 2.372 213.163 2.448 213.331 2.6C213.499 2.744 213.583 2.964 213.583 3.26C213.583 3.548 213.499 3.768 213.331 3.92C213.163 4.064 212.907 4.136 212.563 4.136ZM213.379 5V11H211.735V5H213.379ZM220.654 3.572L220.846 4.748C220.814 4.748 220.778 4.748 220.738 4.748C220.706 4.74 220.67 4.736 220.63 4.736C220.262 4.736 219.986 4.82 219.802 4.988C219.618 5.148 219.526 5.372 219.526 5.66L218.854 5.384C218.854 5.064 218.918 4.768 219.046 4.496C219.174 4.216 219.362 3.992 219.61 3.824C219.866 3.656 220.17 3.572 220.522 3.572C220.538 3.572 220.558 3.572 220.582 3.572C220.606 3.572 220.63 3.572 220.654 3.572ZM218.686 9.872C219.334 9.872 219.834 10.012 220.186 10.292C220.538 10.572 220.714 10.964 220.714 11.468C220.714 11.924 220.582 12.308 220.318 12.62C220.054 12.94 219.682 13.18 219.202 13.34C218.73 13.5 218.182 13.58 217.558 13.58C216.526 13.58 215.77 13.436 215.29 13.148C214.818 12.86 214.582 12.484 214.582 12.02C214.582 11.692 214.706 11.416 214.954 11.192C215.21 10.968 215.63 10.844 216.214 10.82L216.154 11.012C215.738 10.94 215.418 10.804 215.194 10.604C214.978 10.396 214.87 10.112 214.87 9.752C214.87 9.384 215.01 9.084 215.29 8.852C215.578 8.612 215.966 8.472 216.454 8.432L217.174 8.768H217.006C216.662 8.792 216.418 8.864 216.274 8.984C216.138 9.096 216.07 9.224 216.07 9.368C216.07 9.536 216.134 9.664 216.262 9.752C216.398 9.832 216.59 9.872 216.838 9.872H218.686ZM217.57 12.452C217.986 12.452 218.326 12.416 218.59 12.344C218.862 12.272 219.062 12.18 219.19 12.068C219.326 11.956 219.394 11.832 219.394 11.696C219.394 11.544 219.334 11.42 219.214 11.324C219.094 11.236 218.878 11.192 218.566 11.192H216.538C216.346 11.192 216.186 11.24 216.058 11.336C215.938 11.432 215.878 11.564 215.878 11.732C215.878 11.956 216.026 12.132 216.322 12.26C216.626 12.388 217.042 12.452 217.57 12.452ZM217.582 4.88C218.142 4.88 218.626 4.964 219.034 5.132C219.45 5.292 219.766 5.524 219.982 5.828C220.206 6.132 220.318 6.496 220.318 6.92C220.318 7.336 220.206 7.696 219.982 8C219.766 8.304 219.45 8.54 219.034 8.708C218.626 8.868 218.142 8.948 217.582 8.948C216.694 8.948 216.014 8.768 215.542 8.408C215.078 8.04 214.846 7.544 214.846 6.92C214.846 6.496 214.954 6.132 215.17 5.828C215.394 5.524 215.71 5.292 216.118 5.132C216.526 4.964 217.014 4.88 217.582 4.88ZM217.582 5.912C217.262 5.912 216.998 6 216.79 6.176C216.582 6.352 216.478 6.596 216.478 6.908C216.478 7.22 216.582 7.468 216.79 7.652C216.998 7.828 217.262 7.916 217.582 7.916C217.902 7.916 218.162 7.828 218.362 7.652C218.57 7.468 218.674 7.22 218.674 6.908C218.674 6.596 218.57 6.352 218.362 6.176C218.162 6 217.902 5.912 217.582 5.912ZM221.708 11V2.372H223.352V6.02C223.544 5.636 223.808 5.352 224.144 5.168C224.48 4.976 224.86 4.88 225.284 4.88C225.7 4.88 226.068 4.96 226.388 5.12C226.716 5.28 226.972 5.524 227.156 5.852C227.348 6.172 227.444 6.576 227.444 7.064V11H225.8V7.544C225.8 7.024 225.7 6.668 225.5 6.476C225.3 6.276 225.044 6.176 224.732 6.176C224.5 6.176 224.276 6.232 224.06 6.344C223.852 6.448 223.68 6.624 223.544 6.872C223.416 7.112 223.352 7.432 223.352 7.832V11H221.708ZM231.215 3.164V9.044C231.215 9.332 231.287 9.544 231.431 9.68C231.583 9.808 231.787 9.872 232.043 9.872C232.243 9.872 232.419 9.844 232.571 9.788C232.723 9.724 232.859 9.64 232.979 9.536L233.243 10.628C233.051 10.78 232.811 10.9 232.523 10.988C232.235 11.076 231.931 11.12 231.611 11.12C231.211 11.12 230.855 11.06 230.543 10.94C230.239 10.82 229.999 10.628 229.823 10.364C229.655 10.1 229.571 9.748 229.571 9.308V3.62L231.215 3.164ZM233.135 5V6.224H228.467V5H233.135ZM240.651 4.88C241.259 4.88 241.791 5.004 242.247 5.252C242.711 5.5 243.071 5.856 243.327 6.32C243.591 6.784 243.723 7.344 243.723 8C243.723 8.648 243.591 9.208 243.327 9.68C243.071 10.144 242.711 10.5 242.247 10.748C241.791 10.996 241.259 11.12 240.651 11.12C240.051 11.12 239.519 10.996 239.055 10.748C238.591 10.5 238.227 10.144 237.963 9.68C237.707 9.208 237.579 8.648 237.579 8C237.579 7.344 237.707 6.784 237.963 6.32C238.227 5.856 238.591 5.5 239.055 5.252C239.519 5.004 240.051 4.88 240.651 4.88ZM240.651 6.104C240.347 6.104 240.087 6.176 239.871 6.32C239.663 6.456 239.503 6.664 239.391 6.944C239.279 7.224 239.223 7.576 239.223 8C239.223 8.424 239.279 8.776 239.391 9.056C239.503 9.336 239.663 9.548 239.871 9.692C240.087 9.828 240.347 9.896 240.651 9.896C240.947 9.896 241.199 9.828 241.407 9.692C241.623 9.548 241.787 9.336 241.899 9.056C242.011 8.776 242.067 8.424 242.067 8C242.067 7.576 242.011 7.224 241.899 6.944C241.787 6.664 241.623 6.456 241.407 6.32C241.199 6.176 240.947 6.104 240.651 6.104ZM247.716 2.252C247.996 2.252 248.248 2.284 248.472 2.348C248.704 2.404 248.876 2.476 248.988 2.564L248.76 3.656C248.672 3.6 248.572 3.556 248.46 3.524C248.348 3.492 248.216 3.476 248.064 3.476C247.752 3.476 247.504 3.548 247.32 3.692C247.136 3.828 247.044 4.064 247.044 4.4V5.228L247.116 5.552V11H245.472V4.28C245.472 3.944 245.528 3.648 245.64 3.392C245.752 3.136 245.908 2.924 246.108 2.756C246.308 2.588 246.544 2.464 246.816 2.384C247.096 2.296 247.396 2.252 247.716 2.252ZM248.94 5V6.224H244.428V5H248.94ZM260.082 3.08V7.88C260.082 8.96 259.794 9.772 259.217 10.316C258.642 10.852 257.802 11.12 256.698 11.12C255.594 11.12 254.754 10.852 254.178 10.316C253.602 9.772 253.314 8.96 253.314 7.88V3.08H254.97V7.808C254.97 8.472 255.11 8.964 255.39 9.284C255.678 9.604 256.114 9.764 256.698 9.764C257.282 9.764 257.714 9.604 257.994 9.284C258.274 8.964 258.414 8.472 258.414 7.808V3.08H260.082ZM268.253 3.08V4.412H265.601V11H263.945V4.412H261.281V3.08H268.253ZM279.046 3.08V4.412H276.394V11H274.738V4.412H272.074V3.08H279.046ZM279.446 11V5H280.874L280.982 6.176C281.142 5.76 281.374 5.44 281.678 5.216C281.99 4.992 282.378 4.88 282.842 4.88C282.978 4.88 283.102 4.892 283.214 4.916C283.326 4.94 283.418 4.972 283.49 5.012L283.298 6.392C283.218 6.36 283.118 6.336 282.998 6.32C282.886 6.304 282.738 6.296 282.554 6.296C282.314 6.296 282.082 6.356 281.858 6.476C281.634 6.588 281.45 6.764 281.306 7.004C281.162 7.236 281.09 7.532 281.09 7.892V11H279.446ZM287.175 11.12C286.543 11.12 285.991 10.996 285.519 10.748C285.055 10.5 284.695 10.144 284.439 9.68C284.183 9.216 284.055 8.656 284.055 8C284.055 7.344 284.183 6.784 284.439 6.32C284.695 5.856 285.051 5.5 285.507 5.252C285.971 5.004 286.499 4.88 287.091 4.88C287.699 4.88 288.215 5.004 288.639 5.252C289.063 5.492 289.387 5.824 289.611 6.248C289.835 6.664 289.947 7.14 289.947 7.676C289.947 7.836 289.943 7.988 289.935 8.132C289.927 8.276 289.915 8.404 289.899 8.516H285.111V7.376H289.179L288.387 7.664C288.387 7.16 288.271 6.772 288.039 6.5C287.815 6.228 287.495 6.092 287.079 6.092C286.775 6.092 286.511 6.164 286.287 6.308C286.071 6.452 285.907 6.668 285.795 6.956C285.683 7.236 285.627 7.592 285.627 8.024C285.627 8.448 285.687 8.8 285.807 9.08C285.935 9.352 286.111 9.556 286.335 9.692C286.567 9.828 286.843 9.896 287.163 9.896C287.515 9.896 287.799 9.828 288.015 9.692C288.231 9.556 288.399 9.368 288.519 9.128L289.827 9.632C289.699 9.944 289.503 10.212 289.239 10.436C288.983 10.66 288.675 10.832 288.315 10.952C287.963 11.064 287.583 11.12 287.175 11.12ZM294.125 11.12C293.493 11.12 292.941 10.996 292.469 10.748C292.005 10.5 291.645 10.144 291.389 9.68C291.133 9.216 291.005 8.656 291.005 8C291.005 7.344 291.133 6.784 291.389 6.32C291.645 5.856 292.001 5.5 292.457 5.252C292.921 5.004 293.449 4.88 294.041 4.88C294.649 4.88 295.165 5.004 295.589 5.252C296.013 5.492 296.337 5.824 296.561 6.248C296.785 6.664 296.897 7.14 296.897 7.676C296.897 7.836 296.893 7.988 296.885 8.132C296.877 8.276 296.865 8.404 296.849 8.516H292.061V7.376H296.129L295.337 7.664C295.337 7.16 295.221 6.772 294.989 6.5C294.765 6.228 294.445 6.092 294.029 6.092C293.725 6.092 293.461 6.164 293.237 6.308C293.021 6.452 292.857 6.668 292.745 6.956C292.633 7.236 292.577 7.592 292.577 8.024C292.577 8.448 292.637 8.8 292.757 9.08C292.885 9.352 293.061 9.556 293.285 9.692C293.517 9.828 293.793 9.896 294.113 9.896C294.465 9.896 294.749 9.828 294.965 9.692C295.181 9.556 295.349 9.368 295.469 9.128L296.777 9.632C296.649 9.944 296.453 10.212 296.189 10.436C295.933 10.66 295.625 10.832 295.265 10.952C294.913 11.064 294.533 11.12 294.125 11.12ZM300.69 11.12C300.082 11.12 299.526 11.012 299.022 10.796C298.526 10.58 298.122 10.276 297.81 9.884L298.758 8.924C298.95 9.212 299.206 9.448 299.526 9.632C299.846 9.816 300.226 9.908 300.666 9.908C300.978 9.908 301.226 9.864 301.41 9.776C301.602 9.68 301.698 9.532 301.698 9.332C301.698 9.204 301.654 9.096 301.566 9.008C301.478 8.912 301.302 8.836 301.038 8.78L299.982 8.564C299.286 8.42 298.79 8.204 298.494 7.916C298.206 7.62 298.062 7.24 298.062 6.776C298.062 6.448 298.158 6.14 298.35 5.852C298.55 5.564 298.846 5.332 299.238 5.156C299.63 4.972 300.118 4.88 300.702 4.88C301.302 4.88 301.822 4.976 302.262 5.168C302.71 5.352 303.062 5.628 303.318 5.996L302.334 6.956C302.158 6.676 301.926 6.464 301.638 6.32C301.358 6.168 301.062 6.092 300.75 6.092C300.526 6.092 300.334 6.116 300.174 6.164C300.014 6.212 299.894 6.28 299.814 6.368C299.734 6.448 299.694 6.552 299.694 6.68C299.694 6.808 299.75 6.92 299.862 7.016C299.974 7.104 300.178 7.18 300.474 7.244L301.698 7.496C302.29 7.616 302.714 7.82 302.97 8.108C303.226 8.388 303.354 8.728 303.354 9.128C303.354 9.512 303.25 9.856 303.042 10.16C302.842 10.456 302.542 10.692 302.142 10.868C301.75 11.036 301.266 11.12 300.69 11.12Z" fill="black"/>
</svg>
